<?xml version="1.0" encoding="UTF-8"?>
<svg version="1.1" xmlns="http://www.w3.org/2000/svg" width="500" height="500">
<path d="M0 0 C1.33460266 -0.01270432 1.33460266 -0.01270432 2.69616699 -0.02566528 C5.6428042 -0.04909936 8.58892111 -0.05005583 11.53564453 -0.04882812 C13.58204356 -0.05592648 15.62844059 -0.063625 17.67483521 -0.07189941 C21.96719899 -0.08535943 26.25937881 -0.08690644 30.55175781 -0.08105469 C36.05229171 -0.07516111 41.55194219 -0.10572921 47.05230522 -0.14617157 C51.27996577 -0.1720244 55.50741305 -0.17492809 59.73514175 -0.17127991 C61.76294294 -0.17297382 63.7907537 -0.18264231 65.81847763 -0.20042419 C68.65562713 -0.2225631 71.49098157 -0.21293749 74.328125 -0.1953125 C75.58449265 -0.21520737 75.58449265 -0.21520737 76.86624146 -0.23550415 C81.19820744 -0.17298336 82.79140839 0.01216664 86.27539062 2.84179688 C87.87023251 4.87924308 89.2594596 6.71767013 90.42626953 9.01367188 C90.75755859 9.65175781 91.08884766 10.28984375 91.43017578 10.94726562 C91.75630859 11.59824219 92.08244141 12.24921875 92.41845703 12.91992188 C93.4071293 14.84764193 94.39883167 16.77351155 95.39990234 18.69482422 C96.16963546 20.18087181 96.91730414 21.67831062 97.66064453 23.17773438 C99.80974161 26.12888683 102.03035224 27.18690149 105.29345703 28.79492188 C110.56218894 31.48782929 115.53187046 34.38403398 120.46533203 37.64648438 C122.73603607 39.0703789 125.00327638 40.3655983 127.35595703 41.64257812 C133.26273937 44.89363585 138.88588733 48.57013093 144.54345703 52.23242188 C152.26317526 57.21519523 159.9815318 62.1458575 167.93798828 66.74414062 C171.62510504 69.36731324 173.86336943 72.12965908 175.29345703 76.41992188 C175.66573281 81.7408981 174.76769016 85.78039561 172.66845703 90.60742188 C172.37213379 91.30504639 172.07581055 92.0026709 171.77050781 92.72143555 C168.74089322 99.67927923 165.44261567 106.51734694 162.10089111 113.32974243 C161.48245566 114.59169161 160.86746527 115.85533529 160.25604248 117.12069702 C159.38295272 118.92075157 158.49081699 120.71152916 157.59814453 122.50195312 C157.0823584 123.54585205 156.56657227 124.58975098 156.03515625 125.6652832 C153.75937787 129.26461142 151.09309442 131.52010318 147.29345703 133.41992188 C141.10221792 134.03360806 137.36426523 132.37078835 132.10595703 129.48242188 C130.71849533 128.74064872 129.32922507 128.00224646 127.93798828 127.26757812 C127.33317627 126.93765869 126.72836426 126.60773926 126.10522461 126.26782227 C124.18920345 125.37113159 122.34694197 124.90642697 120.29345703 124.41992188 C120.29622241 125.00099481 120.29898779 125.58206774 120.30183697 126.18074894 C120.36816558 140.33663274 120.41777101 154.49249316 120.44889355 168.64849949 C120.46434524 175.4943202 120.48540209 182.34003701 120.51977539 189.18579102 C120.55293439 195.79286908 120.57031299 202.39986761 120.57808876 209.00703239 C120.58362985 211.52719763 120.59445018 214.04735699 120.6106472 216.56747627 C120.63243839 220.0985806 120.63542317 223.62923959 120.6340332 227.16040039 C120.64481903 228.20121765 120.65560486 229.24203491 120.66671753 230.31439209 C120.63932687 236.74918937 120.19423608 242.12794362 115.75830078 247.16210938 C111.27497852 250.48733561 109.21229933 251.54456996 103.66448975 251.56036377 C101.86853615 251.56892899 101.86853615 251.56892899 100.03630066 251.57766724 C98.7024232 251.57891266 97.36854562 251.58003774 96.03466797 251.58105469 C94.63525766 251.58568211 93.23584861 251.59070666 91.83644104 251.59609985 C88.0284273 251.60923527 84.2204312 251.6156713 80.41239834 251.62011051 C78.03336537 251.62304006 75.65433724 251.6271447 73.2753067 251.63161469 C65.83223389 251.64529408 58.38917211 251.65495795 50.9460876 251.65881658 C42.35386133 251.66329529 33.76179431 251.68083256 25.16961646 251.70981717 C18.5291943 251.73143997 11.88881691 251.74152121 5.24835992 251.74285769 C1.28208566 251.74390552 -2.68403899 251.74980803 -6.65027618 251.76767731 C-10.38328933 251.78416789 -14.11604061 251.78630882 -17.84907722 251.7775383 C-19.86849497 251.7764019 -21.88790405 251.79011259 -23.90727234 251.80429077 C-25.11585403 251.79872162 -26.32443573 251.79315247 -27.56964111 251.78741455 C-29.13924528 251.78961439 -29.13924528 251.78961439 -30.74055862 251.79185867 C-35.52702384 251.19163212 -38.76241608 249.44059959 -42.01904297 245.91992188 C-44.39544107 242.3993321 -44.83127862 239.80039562 -44.82679749 235.65534973 C-44.82817215 234.67518387 -44.82954681 233.69501801 -44.83096313 232.68515015 C-44.82557022 231.07430038 -44.82557022 231.07430038 -44.82006836 229.4309082 C-44.82021439 228.29905594 -44.82036041 227.16720367 -44.82051086 226.00105286 C-44.81981292 222.2513336 -44.81202601 218.50166372 -44.80419922 214.75195312 C-44.80233462 212.15549242 -44.80091091 209.55903137 -44.7999115 206.96257019 C-44.79648049 200.82153198 -44.78859503 194.68051422 -44.77856201 188.53948373 C-44.76738735 181.54801398 -44.76188701 174.55654339 -44.75686657 167.56506693 C-44.74641206 153.18334236 -44.72882104 138.80163275 -44.70654297 124.41992188 C-46.1365206 124.88284492 -47.56533272 125.34936911 -48.99365234 125.81738281 C-49.78944702 126.0767865 -50.5852417 126.33619019 -51.40515137 126.60345459 C-54.48390757 127.69570839 -57.31118073 129.16374859 -60.20654297 130.66992188 C-64.9914524 132.90586086 -68.45831366 134.05057375 -73.70654297 133.43554688 C-78.85703944 130.82006039 -81.68534097 124.93801377 -84.08154297 119.94726562 C-84.37335449 119.34290176 -84.66516602 118.7385379 -84.96582031 118.11585999 C-85.57814732 116.84295328 -86.18633694 115.56804863 -86.79052734 114.29125977 C-87.69500378 112.38178274 -88.61361261 110.4796507 -89.53466797 108.578125 C-101.59740236 83.48758862 -101.59740236 83.48758862 -99.70654297 75.41992188 C-95.42437023 66.6366794 -85.26139663 62.04806797 -77.08154297 57.40429688 C-72.29432036 54.58958729 -67.66042919 51.55254621 -63.02050781 48.50268555 C-55.97458904 43.88717881 -48.8228698 39.51367615 -41.38232422 35.56054688 C-27.70890137 28.48733775 -27.70890137 28.48733775 -18.70654297 16.41992188 C-17.77504948 14.69170417 -16.84330182 12.963606 -15.90332031 11.23999023 C-15.00616317 9.57453529 -14.14430422 7.8902062 -13.28466797 6.20507812 C-9.82456889 0.09851712 -6.75664386 -0.0235271 0 0 Z " fill="#A4E8E7" transform="translate(212.70654296875,115.580078125)"/>
<path d="M0 0 C0.84836426 0.00247742 1.69672852 0.00495483 2.57080078 0.00750732 C3.46360245 0.00239639 4.35640411 -0.00271454 5.27626038 -0.00798035 C8.23787067 -0.0219204 11.1992494 -0.02091626 14.16088867 -0.01861572 C16.21350695 -0.02250027 18.26612442 -0.02683443 20.31874084 -0.03160095 C24.62544355 -0.03907269 28.9320643 -0.03876501 33.23876953 -0.0335083 C38.76509108 -0.02771285 44.29107758 -0.04464198 49.81734371 -0.06785297 C54.05776439 -0.08256587 58.29810393 -0.08346534 62.53854561 -0.08034325 C64.57635728 -0.0808577 66.61417335 -0.08611866 68.65196037 -0.09615517 C71.49882822 -0.10845474 74.34503768 -0.10176692 77.19189453 -0.09014893 C78.03823456 -0.09779266 78.88457458 -0.1054364 79.75656128 -0.11331177 C85.55424331 -0.06086126 85.55424331 -0.06086126 87.68604374 1.80555439 C88.10184413 2.29283607 88.51764452 2.78011774 88.94604492 3.28216553 C87.95024414 4.26056396 87.95024414 4.26056396 86.93432617 5.25872803 C81.3928212 10.64915691 81.3928212 10.64915691 76.32104492 16.46966553 C71.9103619 21.69284279 66.55301431 25.81881882 61.19604492 30.03216553 C56.54830869 33.70560923 52.19659614 37.63727028 47.88061523 41.68939209 C44.1413694 45.18450329 44.1413694 45.18450329 41.94604492 46.28216553 C45.31423131 53.99045279 53.62568383 58.57453097 60.26245117 63.27825928 C63.47102209 65.67417905 66.34458331 68.31916778 69.19213867 71.12982178 C70.86628221 72.44307946 70.86628221 72.44307946 72.87963867 72.37200928 C76.11409128 70.66612595 77.67069649 67.79338777 79.57104492 64.78216553 C79.99691895 64.12595215 80.42279297 63.46973877 80.86157227 62.79364014 C85.7997679 55.10447382 90.39009968 47.20175545 94.94604492 39.28216553 C95.27604492 39.94216553 95.60604492 40.60216553 95.94604492 41.28216553 C95.14501953 43.46185303 95.14501953 43.46185303 93.84838867 46.15716553 C93.37594727 47.14329834 92.90350586 48.12943115 92.41674805 49.14544678 C91.91079102 50.18056396 91.40483398 51.21568115 90.88354492 52.28216553 C90.4046582 53.28634521 89.92577148 54.2905249 89.43237305 55.32513428 C80.68314066 73.43264869 80.68314066 73.43264869 75.94604492 77.28216553 C68.90873525 77.12578087 64.14775211 72.56592439 58.94604492 68.28216553 C58.71916992 69.12779053 58.49229492 69.97341553 58.25854492 70.84466553 C57.0688157 73.96062302 56.36510138 75.00404725 54.25854492 77.34466553 C50.47338955 82.45083938 52.19538239 88.32805615 52.94604492 94.28216553 C53.62161492 98.66109058 54.45878302 102.99903127 55.32104492 107.34466553 C55.8537927 110.11391953 56.38493569 112.8834536 56.91479492 115.65325928 C57.13895584 116.81957886 57.13895584 116.81957886 57.36764526 118.00946045 C59.52228921 129.24003831 61.60553701 140.48406172 63.67986488 151.72970676 C64.43687747 155.83318599 65.19897303 159.93567576 65.96501541 164.03747845 C66.56468453 167.25624357 67.15715543 170.47633479 67.75073242 173.69622803 C67.97233032 174.87624893 68.19392822 176.05626984 68.42224121 177.27204895 C68.62329468 178.37060715 68.82434814 179.46916534 69.03149414 180.60101318 C69.20881073 181.55706451 69.38612732 182.51311584 69.56881714 183.49813843 C70.61981177 191.25471861 70.61981177 191.25471861 68.6484375 194.26092529 C68.05184326 194.82609863 67.45524902 195.39127197 66.84057617 195.97357178 C66.18637695 196.60843506 65.53217773 197.24329834 64.8581543 197.8973999 C64.1652832 198.53999756 63.47241211 199.18259521 62.75854492 199.84466553 C62.08500977 200.49113037 61.41147461 201.13759521 60.7175293 201.8036499 C59.40120028 203.06604154 58.07931107 204.32266539 56.75146484 205.57293701 C54.43697779 207.76410995 52.19170009 210.02075138 49.94604492 212.28216553 C44.2465518 217.95703881 44.2465518 217.95703881 39.94604492 219.03216553 C34.6646564 217.7118184 31.32640561 214.01874833 28.00854492 209.84466553 C26.17115353 207.56184592 24.42038491 205.91097697 22.19604492 204.03216553 C20.77231826 202.79021269 19.35657622 201.53908474 17.94604492 200.28216553 C17.21816772 199.63507629 16.49029053 198.98798706 15.74035645 198.32128906 C10.16567351 192.8086818 10.16567351 192.8086818 9.58886719 188.79962158 C9.87087934 185.99086072 10.42046947 183.38097011 11.10229492 180.64154053 C11.54589644 178.50565813 11.98855888 176.36958054 12.43041992 174.2333374 C12.68049805 173.10564941 12.93057617 171.97796143 13.18823242 170.81610107 C14.50492605 164.67591413 15.52757505 158.48399733 16.60229492 152.29779053 C17.07019466 149.68672683 17.54026759 147.07605169 18.01245117 144.46575928 C18.25093463 143.14659323 18.48937853 141.82742003 18.7277832 140.50823975 C18.84623596 139.85301331 18.96468872 139.19778687 19.08673096 138.52270508 C19.56702853 135.8619365 20.04471747 133.20070205 20.52250671 130.53948212 C25.19496181 104.53274279 25.19496181 104.53274279 27.80383301 92.29223633 C28.97765224 86.82692552 28.97765224 86.82692552 28.94604492 81.28216553 C27.75414874 79.76813525 26.55311246 78.25696233 25.25073242 76.83685303 C23.34364363 74.56433405 22.24185282 71.93548645 20.94604492 69.28216553 C19.95604492 68.78716553 19.95604492 68.78716553 18.94604492 68.28216553 C18.69338867 68.88415771 18.44073242 69.4861499 18.18041992 70.10638428 C16.08017586 73.80839676 12.76040445 75.57105097 8.94604492 77.28216553 C5.75854492 77.59466553 5.75854492 77.59466553 2.94604492 76.28216553 C-1.15708278 70.94530713 -4.15904805 64.58917579 -7.30395508 58.65716553 C-7.7499707 57.83732178 -8.19598633 57.01747803 -8.65551758 56.17279053 C-10.93948295 51.86786185 -12.63811455 48.22427028 -13.05395508 43.28216553 C-9.31268987 47.66024184 -6.43701475 52.41949895 -3.49145508 57.34466553 C-2.5337338 58.94086766 -1.57415758 60.53595858 -0.61254883 62.12982178 C-0.19287842 62.83115234 0.22679199 63.53248291 0.65917969 64.25506592 C1.94191838 66.3467347 1.94191838 66.3467347 3.60595703 68.41668701 C4.94604492 70.28216553 4.94604492 70.28216553 4.94604492 72.28216553 C10.32262102 71.87892232 12.64040833 70.20421983 16.44604492 66.46966553 C20.09666171 62.91870638 23.70737215 60.09151841 27.94604492 57.28216553 C29.93569057 55.56784944 31.89482049 53.81744671 33.82104492 52.03216553 C34.7878418 51.14013428 35.75463867 50.24810303 36.75073242 49.32904053 C37.47518555 48.65357178 38.19963867 47.97810303 38.94604492 47.28216553 C35.73852808 43.99431732 32.46254826 40.97190351 28.88354492 38.09466553 C27.93737305 37.32638428 26.99120117 36.55810303 26.01635742 35.76654053 C24.4345303 34.48658881 22.85261394 33.20674599 21.26928711 31.9286499 C19.59434687 30.57297417 17.92601975 29.20950701 16.25854492 27.84466553 C15.24405273 27.02095459 14.22956055 26.19724365 13.18432617 25.34857178 C12.44569336 24.66665771 11.70706055 23.98474365 10.94604492 23.28216553 C10.94604492 22.62216553 10.94604492 21.96216553 10.94604492 21.28216553 C10.09139648 20.91478271 10.09139648 20.91478271 9.21948242 20.53997803 C2.01853496 16.55594868 -3.42875341 8.93882832 -8.05395508 2.28216553 C-5.43419644 -0.33759311 -3.56764782 0.03271919 0 0 Z " fill="#37C7C1" transform="translate(210.053955078125,115.71783447265625)"/>
<path d="M0 0 C0.495 0.99 0.495 0.99 1 2 C0.19897461 4.1796875 0.19897461 4.1796875 -1.09765625 6.875 C-1.57009766 7.86113281 -2.04253906 8.84726563 -2.52929688 9.86328125 C-3.28823242 11.41595703 -3.28823242 11.41595703 -4.0625 13 C-4.54138672 14.00417969 -5.02027344 15.00835937 -5.51367188 16.04296875 C-14.26290426 34.15048316 -14.26290426 34.15048316 -19 38 C-26.03730967 37.84361534 -30.79829281 33.28375886 -36 29 C-36.2475 29.9075 -36.495 30.815 -36.75 31.75 C-38.03981342 35.10351489 -39.31971042 36.67708236 -42 39 C-41.67 37.35 -41.34 35.7 -41 34 C-40.34 34 -39.68 34 -39 34 C-39.020625 33.071875 -39.04125 32.14375 -39.0625 31.1875 C-38.99470688 27.73005101 -38.08735417 25.2620625 -37 22 C-36.10796875 22.80566406 -35.2159375 23.61132812 -34.296875 24.44140625 C-33.11516748 25.4824343 -31.93284348 26.52276285 -30.75 27.5625 C-30.16347656 28.09552734 -29.57695312 28.62855469 -28.97265625 29.17773438 C-27.04758657 30.90315559 -27.04758657 30.90315559 -24 33 C-21.90588427 32.92163365 -21.90588427 32.92163365 -20 32 C-18.28616677 29.85921182 -16.83067966 27.80661646 -15.375 25.5 C-14.73618896 24.51567993 -14.73618896 24.51567993 -14.08447266 23.51147461 C-9.14627702 15.8223083 -4.55594524 7.91958992 0 0 Z " fill="#46C3BD" transform="translate(305,155)"/>
<path d="M0 0 C3.74126521 4.37807631 6.61694033 9.13733342 9.5625 14.0625 C10.52022128 15.65870213 11.4797975 17.25379305 12.44140625 18.84765625 C12.86107666 19.54898682 13.28074707 20.25031738 13.71313477 20.97290039 C14.99587346 23.06456917 14.99587346 23.06456917 16.65991211 25.13452148 C18 27 18 27 18 29 C23.3765761 28.59675679 25.69436341 26.9220543 29.5 23.1875 C33.65896653 19.14206848 37.77815779 15.61092111 43 13 C42.33333333 14.33333333 41.66666667 15.66666667 41 17 C40.7525 17.70125 40.505 18.4025 40.25 19.125 C39 21 39 21 36 21.9375 C35.01 22.288125 34.02 22.63875 33 23 C31.89363605 25.39068734 31.89363605 25.39068734 31 28 C27.26727888 31.43803261 24.19891688 33.90642907 19.0625 34.125 C15.68410095 32.88395545 15.37930193 32.46907361 13.63671875 29.53125 C13.20738037 28.80953613 12.77804199 28.08782227 12.33569336 27.34423828 C10.07979039 23.3849657 7.88446237 19.40108171 5.75 15.375 C5.30398437 14.55515625 4.85796875 13.7353125 4.3984375 12.890625 C2.11447212 8.58569632 0.41584053 4.94210475 0 0 Z " fill="#44C4BF" transform="translate(197,159)"/>
<path d="M0 0 C0 3 0 3 -2.3125 5.6875 C-5 8 -5 8 -8 8 C-8.23589844 8.5878125 -8.47179687 9.175625 -8.71484375 9.78125 C-10.7079871 13.22229991 -13.79752704 14.96145904 -17.00390625 17.21875 C-19.17618503 19.15722186 -19.6450734 20.16058721 -20 23 C-19.34 23.33 -18.68 23.66 -18 24 C-18.33 24.66 -18.66 25.32 -19 26 C-20.65 24.68 -22.3 23.36 -24 22 C-22.74507047 18.23521141 -21.16902481 17.30619333 -18.0625 14.875 C-13.19999906 11.0027734 -8.56610053 6.96171825 -3.99609375 2.75 C-2 1 -2 1 0 0 Z " fill="#96EDED" transform="translate(275,142)"/>
<path d="M0 0 C0.66 0.33 1.32 0.66 2 1 C3.29390947 5.60146555 3.90411631 10.12154476 1.79296875 14.5078125 C0.30073525 16.53376455 -1.11398591 18.333623 -3 20 C-3.66 20 -4.32 20 -5 20 C-5.2475 20.5775 -5.495 21.155 -5.75 21.75 C-7.16683317 24.3002997 -8.87627537 26.01785701 -11 28 C-11.87109375 26.34375 -11.87109375 26.34375 -12 24 C-10.07029855 22.01959542 -8.16202269 20.27975103 -6.0625 18.5 C-2.58919249 15.35373109 -0.27942957 13.20495483 0.80078125 8.546875 C0.75556347 5.61119754 0.55174653 2.88134301 0 0 Z " fill="#97ECEB" transform="translate(279,296)"/>
<path d="M0 0 C3.40967302 4.02748075 6.08703775 8.28025969 8.75 12.8125 C9.16121094 13.50537109 9.57242188 14.19824219 9.99609375 14.91210938 C11.0007858 16.6060669 12.00086825 18.30275696 13 20 C12.34 20.33 11.68 20.66 11 21 C10.67 21.66 10.34 22.32 10 23 C8.50656376 20.29930572 7.03293507 17.58827625 5.5625 14.875 C5.14162109 14.11445313 4.72074219 13.35390625 4.28710938 12.5703125 C2.02241035 8.3670311 0.42537118 4.84149745 0 0 Z " fill="#4EC2BB" transform="translate(197,159)"/>
<path d="M0 0 C0.33 0.66 0.66 1.32 1 2 C0.401875 2.226875 -0.19625 2.45375 -0.8125 2.6875 C-3.56351888 4.33811133 -4.52484637 6.1972081 -6 9 C-6.99 8.67 -7.98 8.34 -9 8 C-10.97930142 8.94447877 -10.97930142 8.94447877 -12.9375 10.375 C-15.62906534 12.23160962 -17.77525948 13.37958012 -21 14 C-21 13.34 -21 12.68 -21 12 C-14.07 8.04 -7.14 4.08 0 0 Z " fill="#A9E2E0" transform="translate(187,142)"/>
<path d="M0 0 C2.66343273 3.33751138 4.70475504 6.88101852 6.75 10.625 C7.38421875 11.77226562 8.0184375 12.91953125 8.671875 14.1015625 C9.11015625 15.05804688 9.5484375 16.01453125 10 17 C9.67 17.66 9.34 18.32 9 19 C3.67209977 14.70808037 1.80384709 9.50997328 0 3 C0 2.01 0 1.02 0 0 Z " fill="#96EFEF" transform="translate(199,167)"/>
<path d="M0 0 C6.875 5.75 6.875 5.75 8 8 C7.113125 7.67 6.22625 7.34 5.3125 7 C2.2331346 6.07038026 0.1675634 5.57195089 -3 6 C-4.81476003 7.39585785 -4.81476003 7.39585785 -6 9 C-6.99 8.67 -7.98 8.34 -9 8 C-6.03 5.36 -3.06 2.72 0 0 Z " fill="#45C4BE" transform="translate(250,162)"/>
<path d="M0 0 C3.80255912 1.90127956 5.21906384 7.40332557 6.99023438 11.18554688 C7.33248047 11.89646484 7.67472656 12.60738281 8.02734375 13.33984375 C8.48741821 14.32005493 8.48741821 14.32005493 8.95678711 15.32006836 C10.04278618 17.32768362 10.04278618 17.32768362 13 19 C13 19.66 13 20.32 13 21 C6.38208031 18.22383877 3.82710008 10.85676024 0.69921875 4.76171875 C0 3 0 3 0 0 Z " fill="#AFE0DF" transform="translate(126,227)"/>
<path d="M0 0 C0.99 0.33 1.98 0.66 3 1 C3.33 6.94 3.66 12.88 4 19 C2.36067454 15.72134908 1.55308622 13.55518221 0.875 10.0625 C0.62363281 8.81146484 0.62363281 8.81146484 0.3671875 7.53515625 C-0.00211177 4.98541981 -0.06442528 2.57240933 0 0 Z " fill="#97EEEC" transform="translate(275,275)"/>
<path d="M0 0 C3.16115776 1.36983503 3.9927092 1.9890638 6 5 C3.03 4.505 3.03 4.505 0 4 C-0.33 5.65 -0.66 7.3 -1 9 C-1.99 9 -2.98 9 -4 9 C-2.80100302 5.9168649 -1.52299523 2.93720508 0 0 Z " fill="#93EDEC" transform="translate(269,184)"/>
<path d="M0 0 C1.32 0.33 2.64 0.66 4 1 C4 1.66 4 2.32 4 3 C4.66 3 5.32 3 6 3 C6 3.99 6 4.98 6 6 C6.598125 6.2475 7.19625 6.495 7.8125 6.75 C10.28647521 8.16370012 11.43370255 9.65055383 13 12 C9.57143381 10.49017269 7.04321784 8.48286031 4.25 6 C3.45078125 5.29875 2.6515625 4.5975 1.828125 3.875 C0 2 0 2 0 0 Z " fill="#45C1BB" transform="translate(223,138)"/>
<path d="M0 0 C0.66 0.33 1.32 0.66 2 1 C1.03644647 10.41002278 1.03644647 10.41002278 0 15 C-1.69787432 12.40325104 -2.02157276 11.20278391 -1.6875 8.0625 C-1.460625 7.051875 -1.23375 6.04125 -1 5 C-0.814375 4.05125 -0.62875 3.1025 -0.4375 2.125 C-0.293125 1.42375 -0.14875 0.7225 0 0 Z " fill="#8FEAE9" transform="translate(238,196)"/>
<path d="M0 0 C2.97 1.98 2.97 1.98 6 4 C4.35 5.98 2.7 7.96 1 10 C0.01 9.67 -0.98 9.34 -2 9 C-1.67 8.34 -1.34 7.68 -1 7 C-0.01 7 0.98 7 2 7 C2 6.01 2 5.02 2 4 C1.34 3.67 0.68 3.34 0 3 C0 2.01 0 1.02 0 0 Z " fill="#97EDEB" transform="translate(244,158)"/>
<path d="M0 0 C0.99 0.33 1.98 0.66 3 1 C4.1875 3.5625 4.1875 3.5625 5 6 C4.01 5.67 3.02 5.34 2 5 C2 4.34 2 3.68 2 3 C-0.31 4.65 -2.62 6.3 -5 8 C-5.66 7.67 -6.32 7.34 -7 7 C-5.47005208 5.76302083 -3.94010417 4.52604167 -2.41015625 3.2890625 C-0.86733563 2.0333609 -0.86733563 2.0333609 0 0 Z " fill="#96EEEF" transform="translate(229,184)"/>
<path d="M0 0 C1.98 0 3.96 0 6 0 C5.25 1.9375 5.25 1.9375 4 4 C1.875 4.75 1.875 4.75 0 5 C-0.66 4.01 -1.32 3.02 -2 2 C-1.34 2 -0.68 2 0 2 C0 1.34 0 0.68 0 0 Z " fill="#98ECEB" transform="translate(281,184)"/>
<path d="M0 0 C0.33 0.66 0.66 1.32 1 2 C-0.21484375 4.8203125 -0.21484375 4.8203125 -1.9375 8.125 C-2.50339844 9.22070312 -3.06929688 10.31640625 -3.65234375 11.4453125 C-4.09707031 12.28835937 -4.54179687 13.13140625 -5 14 C-5.33 14 -5.66 14 -6 14 C-6.36539443 9.71422781 -5.48423598 7.65507938 -3 4.1875 C-2.1646875 3.00220703 -2.1646875 3.00220703 -1.3125 1.79296875 C-0.879375 1.20128906 -0.44625 0.60960937 0 0 Z " fill="#AAE2E0" transform="translate(382,210)"/>
<path d="M0 0 C-1 3 -1 3 -3.9375 4.75 C-5.4534375 5.36875 -5.4534375 5.36875 -7 6 C-7.66 5.67 -8.32 5.34 -9 5 C-7.87926138 4.16094435 -6.75325453 3.32892169 -5.625 2.5 C-4.99851562 2.0359375 -4.37203125 1.571875 -3.7265625 1.09375 C-2 0 -2 0 0 0 Z M-11 6 C-10.34 6.33 -9.68 6.66 -9 7 C-9.99 7.99 -10.98 8.98 -12 10 C-11.67 8.68 -11.34 7.36 -11 6 Z " fill="#AFE2E1" transform="translate(129,178)"/>
<path d="M0 0 C4.31392226 0.4793247 6.16569547 1.7457985 9 5 C8.67 5.99 8.34 6.98 8 8 C6.85073734 7.04578192 5.70569459 6.08647955 4.5625 5.125 C3.92441406 4.59132812 3.28632813 4.05765625 2.62890625 3.5078125 C1 2 1 2 0 0 Z " fill="#4AC7C0" transform="translate(208,125)"/>
<path d="M0 0 C0.33 0.99 0.66 1.98 1 3 C-3.51350747 6.52273754 -6.28341664 7.45732667 -12 7 C-12 6.67 -12 6.34 -12 6 C-10.7625 5.7525 -9.525 5.505 -8.25 5.25 C-4.48560327 4.3289242 -2.46922107 3.08652634 0 0 Z " fill="#ADDEDF" transform="translate(365,242)"/>
<path d="M0 0 C1.24451915 3.59527755 0.70603283 6.31293967 0 10 C0 10.99 0 11.98 0 13 C-0.66 13 -1.32 13 -2 13 C-2.05447047 11.58376784 -2.09300508 10.16691809 -2.125 8.75 C-2.14820312 7.96109375 -2.17140625 7.1721875 -2.1953125 6.359375 C-1.9828378 3.79268059 -1.28654105 2.2083933 0 0 Z " fill="#ADE1DF" transform="translate(115,187)"/>
<path d="M0 0 C0.66 0.33 1.32 0.66 2 1 C1.01 1 0.02 1 -1 1 C-0.67 0.67 -0.34 0.34 0 0 Z M-1 2 C-1.66 3.32 -2.32 4.64 -3 6 C-3.66 5.67 -4.32 5.34 -5 5 C-5.33 5.66 -5.66 6.32 -6 7 C-6.99 6.67 -7.98 6.34 -9 6 C-3.25 2 -3.25 2 -1 2 Z " fill="#ADE3DF" transform="translate(145,167)"/>
<path d="M0 0 C3.98175544 2.10148204 6.35039045 4.36905358 9 8 C5.08158173 6.69386058 2.67359191 5.16870152 0 2 C0 1.34 0 0.68 0 0 Z " fill="#98EDEE" transform="translate(233,149)"/>
<path d="M0 0 C0.33 0 0.66 0 1 0 C1.19294408 4.82360189 0.75747614 8.49646738 -1 13 C-2.0625 11.1875 -2.0625 11.1875 -3 9 C-2.67 8.01 -2.34 7.02 -2 6 C-1.34 6 -0.68 6 0 6 C0 4.02 0 2.04 0 0 Z " fill="#AAE1DF" transform="translate(387,192)"/>
<path d="M0 0 C1.65 0.99 3.3 1.98 5 3 C4.01 3.99 3.02 4.98 2 6 C1.01 5.67 0.02 5.34 -1 5 C-0.67 3.35 -0.34 1.7 0 0 Z " fill="#ABE3E1" transform="translate(331,152)"/>
<path d="M0 0 C1 3 1 3 -0.4375 6.1875 C-1.2109375 7.5796875 -1.2109375 7.5796875 -2 9 C-2.99 7.68 -3.98 6.36 -5 5 C-3.35 3.35 -1.7 1.7 0 0 Z " fill="#93DDDB" transform="translate(309,146)"/>
<path d="M0 0 C2.15377564 2.62198774 3.40072174 4.64404172 4 8 C1.03 7.505 1.03 7.505 -2 7 C-1.67 6.401875 -1.34 5.80375 -1 5.1875 C0.20787988 2.94613529 0.20787988 2.94613529 0 0 Z " fill="#A6E0DF" transform="translate(299,119)"/>
<path d="M0 0 C1.32 0 2.64 0 4 0 C3.6875 1.9375 3.6875 1.9375 3 4 C2.01 4.33 1.02 4.66 0 5 C-0.33 4.34 -0.66 3.68 -1 3 C-0.67 2.01 -0.34 1.02 0 0 Z " fill="#3DC9C0" transform="translate(222,186)"/>
<path d="M0 0 C0.66 0 1.32 0 2 0 C1.34 1.98 0.68 3.96 0 6 C-0.99 6 -1.98 6 -3 6 C-1.125 1.125 -1.125 1.125 0 0 Z " fill="#46C1B7" transform="translate(299,166)"/>
</svg>
