<?xml version="1.0" encoding="UTF-8"?>
<svg version="1.1" xmlns="http://www.w3.org/2000/svg" width="1024" height="1024">
<path d="M0 0 C0.62777344 0.48339844 1.25554687 0.96679688 1.90234375 1.46484375 C3.01416016 2.23634766 3.01416016 2.23634766 4.1484375 3.0234375 C5.01662109 3.73693359 5.01662109 3.73693359 5.90234375 4.46484375 C5.90234375 5.12484375 5.90234375 5.78484375 5.90234375 6.46484375 C6.56234375 6.46484375 7.22234375 6.46484375 7.90234375 6.46484375 C9.55859375 8.9140625 9.55859375 8.9140625 11.40234375 12.15234375 C12.01078125 13.20808594 12.61921875 14.26382812 13.24609375 15.3515625 C15.75972433 20.07647659 17.16094111 24.15145818 17.90234375 29.46484375 C18.81628906 29.63757813 19.73023438 29.8103125 20.671875 29.98828125 C60.38261559 38.12205204 98.58310425 58.66211664 127.90234375 86.46484375 C129.20995636 87.57479399 130.52220646 88.67931267 131.83984375 89.77734375 C146.97673899 102.99504164 167.02495147 124.87353615 172.90234375 144.46484375 C172.69770262 147.33417358 172.36226799 148.91319304 170.51171875 151.1328125 C169.898125 151.63425781 169.28453125 152.13570312 168.65234375 152.65234375 C167.93691406 153.24402344 167.22148438 153.83570313 166.484375 154.4453125 C164.02027071 156.37260738 161.53798218 158.27427627 159.046875 160.16650391 C146.52784681 169.68827049 137.81243638 180.33470945 130.65234375 194.33984375 C130.34756104 194.92628662 130.04277832 195.51272949 129.72875977 196.11694336 C126.37490878 202.93960864 124.22132629 210.24303771 121.90234375 217.46484375 C122.67384766 217.4559613 123.44535156 217.44707886 124.24023438 217.43792725 C131.53691453 217.357536 138.83337774 217.29675564 146.13038635 217.25759506 C149.88122564 217.23678478 153.63169677 217.20858908 157.38232422 217.16308594 C161.00687237 217.11939125 164.63106802 217.09565739 168.25585938 217.08533478 C169.63368269 217.07798543 171.0114883 217.06363429 172.38916016 217.04192352 C187.4120992 216.81474922 187.4120992 216.81474922 192.90234375 221.46484375 C197.51426434 227.17732073 197.50374926 232.46774279 197.46875 239.62109375 C197.47494858 240.6821936 197.48114716 241.74329346 197.48753357 242.83654785 C197.49461367 245.07217495 197.49148952 247.30785497 197.47875977 249.54345703 C197.46488606 252.95444108 197.49900452 256.36268438 197.53710938 259.7734375 C197.53806059 261.95182358 197.53620162 264.13021309 197.53125 266.30859375 C197.55113731 267.82918396 197.55113731 267.82918396 197.57142639 269.38049316 C197.49993785 274.8442975 196.91896448 278.5865004 193.65757751 283.03283691 C187.33691343 288.18954844 180.50540513 287.89868509 172.72242737 287.87030029 C171.49570137 287.87765269 170.26897538 287.88500508 169.00507587 287.89258027 C165.60981288 287.90991458 162.21501171 287.9139237 158.8197366 287.91224265 C155.15052985 287.91367949 151.48140494 287.93234366 147.8122406 287.94883728 C140.61212056 287.97848382 133.41205287 287.99224473 126.21188021 288.00073972 C117.76682957 288.01132761 109.32185101 288.03789993 100.87684023 288.06508377 C85.73244531 288.11330428 70.5880515 288.14734875 55.44360352 288.17333984 C40.89311017 288.1983267 26.34268085 288.23251139 11.79223633 288.27783203 C10.90429257 288.28059626 10.01634881 288.28336049 9.10149766 288.28620848 C8.21481481 288.28897084 7.32813196 288.2917332 6.41457993 288.29457927 C4.62738996 288.30014384 2.84019998 288.30570417 1.05300999 288.31126022 C0.17068716 288.31400406 -0.71163567 288.3167479 -1.62069556 288.31957488 C-15.64201429 288.36276621 -29.66335697 288.39699104 -43.68470172 288.43047534 C-48.68817531 288.44252952 -53.69164369 288.4558112 -58.69511131 288.47012326 C-96.39404581 288.57755196 -134.07118952 288.45799179 -171.76453525 287.75566936 C-185.3848049 287.50310814 -198.9985627 287.39010566 -212.62109375 287.421875 C-213.59771418 287.42395332 -214.57433461 287.42603164 -215.5805496 287.42817295 C-218.34894828 287.43429249 -221.11734523 287.44090204 -223.88574219 287.44775391 C-245.06178161 287.49817008 -266.23797498 287.36919662 -287.41350174 287.22913933 C-294.33506187 287.183608 -301.25655786 287.144122 -308.17822266 287.1184082 C-315.01466557 287.09300829 -321.85087334 287.05224951 -328.68717575 287.00165749 C-331.26197931 286.9850344 -333.83682108 286.97349186 -336.41167068 286.96722984 C-339.96691511 286.95765422 -343.52156184 286.9297072 -347.07666016 286.8972168 C-348.12563477 286.89865189 -349.17460937 286.90008698 -350.25537109 286.90156555 C-359.12501831 286.78638013 -359.12501831 286.78638013 -363.09765625 283.46484375 C-366.61647583 279.1919914 -366.8249099 274.79141961 -367.09765625 269.46484375 C-367.19433594 267.9953125 -367.19433594 267.9953125 -367.29296875 266.49609375 C-367.53290159 260.16186686 -367.33579287 254.5044618 -363.09765625 249.46484375 C-358.30587116 245.55448251 -353.19704561 245.90698682 -347.29296875 245.78125 C-345.6100322 245.73140709 -345.6100322 245.73140709 -343.89309692 245.68055725 C-327.47338463 245.25844947 -311.04170695 245.35371327 -294.61810303 245.3961792 C-290.14514656 245.4066023 -285.67218398 245.41101651 -281.19921875 245.41601562 C-272.49868177 245.42658542 -263.79817355 245.4435405 -255.09765625 245.46484375 C-254.97999405 244.34107834 -254.97999405 244.34107834 -254.85995483 243.1946106 C-254.49368545 239.72424236 -254.1199209 236.25471818 -253.74609375 232.78515625 C-253.5613147 231.01845581 -253.5613147 231.01845581 -253.37280273 229.21606445 C-249.19278119 190.72558215 -236.84399179 153.06320149 -214.09765625 121.46484375 C-213.3809375 120.45421875 -212.66421875 119.44359375 -211.92578125 118.40234375 C-193.61138967 93.27018596 -170.73799204 72.48058391 -144.09765625 56.46484375 C-142.78800903 55.66397339 -142.78800903 55.66397339 -141.4519043 54.84692383 C-134.35970828 50.59160622 -127.16971916 47.07166911 -119.53515625 43.90234375 C-118.4069043 43.43054688 -117.27865234 42.95875 -116.11621094 42.47265625 C-102.10343176 36.70385688 -87.99854139 32.23597084 -73.09765625 29.46484375 C-72.75734375 27.54671875 -72.75734375 27.54671875 -72.41015625 25.58984375 C-69.67523271 13.42612786 -62.95407217 4.87501707 -52.75390625 -1.9609375 C-36.28642047 -11.72034451 -15.60822122 -11.29424069 0 0 Z M-41.09765625 23.46484375 C-41.75765625 24.45484375 -42.41765625 25.44484375 -43.09765625 26.46484375 C-32.86765625 26.46484375 -22.63765625 26.46484375 -12.09765625 26.46484375 C-17.54231916 21.02018084 -20.05598799 19.9223911 -27.41015625 19.08984375 C-32.34481919 19.59167388 -36.74035045 21.08306234 -41.09765625 23.46484375 Z " fill="#425776" transform="translate(556.09765625,362.53515625)"/>
<path d="M0 0 C53.46 0 106.92 0 162 0 C159 3 159 3 156.26765442 3.34851074 C155.1362352 3.33598267 154.00481598 3.32345459 152.83911133 3.31054688 C152.19619581 3.3076918 151.5532803 3.30483673 150.89088249 3.30189514 C148.68340742 3.28844771 146.47677077 3.25327253 144.26953125 3.21875 C142.64965445 3.20462661 141.02976458 3.19194427 139.40986633 3.18054199 C135.71437955 3.15187145 132.01912883 3.11366976 128.3237915 3.06982422 C121.38966412 2.98958062 114.45541658 2.94155093 107.52099609 2.89453125 C96.80752901 2.81997316 86.09418417 2.7370293 75.38085938 2.64453125 C74.69916113 2.63864613 74.01746288 2.632761 73.31510711 2.62669754 C70.54286893 2.60273166 67.77063119 2.5787155 64.99839413 2.55462074 C57.89013906 2.49288456 50.78186857 2.43301361 43.67359674 2.37324238 C29.11571421 2.25079075 14.55785078 2.12617068 0 2 C0 1.34 0 0.68 0 0 Z " fill="#3B4E6C" transform="translate(198,647)"/>
<path d="M0 0 C0 0.33 0 0.66 0 1 C-8.39004715 1.13605482 -16.64380043 0.75475351 -25 0 C-25 -0.33 -25 -0.66 -25 -1 C-22.33383784 -1.2242 -19.66830733 -1.42964971 -17 -1.625 C-15.88431641 -1.72167969 -15.88431641 -1.72167969 -14.74609375 -1.8203125 C-9.39331828 -2.19267949 -5.14556096 -1.53197383 0 0 Z " fill="#354767" transform="translate(545,390)"/>
<path d="M0 0 C2.83022097 3.99560608 1.76210446 7.42737323 1 12 C0.34 12 -0.32 12 -1 12 C-1.33 12.99 -1.66 13.98 -2 15 C-1.03644647 4.44191344 -1.03644647 4.44191344 0 0 Z " fill="#4D607F" transform="translate(307,564)"/>
<path d="M0 0 C0.99 0 1.98 0 3 0 C5.25 2.3125 5.25 2.3125 7 5 C6.67 5.99 6.34 6.98 6 8 C4.9970458 6.85675161 3.99770973 5.71032809 3 4.5625 C2.443125 3.92441406 1.88625 3.28632813 1.3125 2.62890625 C0 1 0 1 0 0 Z " fill="#3D4F6F" transform="translate(701,469)"/>
<path d="" fill="#606F8B" transform="translate(0,0)"/>
<path d="" fill="#606E88" transform="translate(0,0)"/>
<path d="M0 0 C2 1 2 1 2 1 Z " fill="#5E6E86" transform="translate(694,651)"/>
<path d="M0 0 C2 1 2 1 2 1 Z " fill="#5E6E85" transform="translate(630,651)"/>
<path d="" fill="#62708A" transform="translate(0,0)"/>
<path d="" fill="#606F8A" transform="translate(0,0)"/>
<path d="" fill="#505052" transform="translate(0,0)"/>
<path d="" fill="#585959" transform="translate(0,0)"/>
<path d="" fill="#595A59" transform="translate(0,0)"/>
<path d="" fill="#606E87" transform="translate(0,0)"/>
<path d="" fill="#606D87" transform="translate(0,0)"/>
<path d="" fill="#606F88" transform="translate(0,0)"/>
<path d="" fill="#616D87" transform="translate(0,0)"/>
<path d="" fill="#626E86" transform="translate(0,0)"/>
<path d="" fill="#626F86" transform="translate(0,0)"/>
<path d="" fill="#616F88" transform="translate(0,0)"/>
<path d="" fill="#616F88" transform="translate(0,0)"/>
<path d="" fill="#606C88" transform="translate(0,0)"/>
<path d="" fill="#606E88" transform="translate(0,0)"/>
<path d="" fill="#626F89" transform="translate(0,0)"/>
<path d="" fill="#636E89" transform="translate(0,0)"/>
<path d="" fill="#5D6C88" transform="translate(0,0)"/>
<path d="" fill="#626F86" transform="translate(0,0)"/>
<path d="" fill="#5F6E87" transform="translate(0,0)"/>
<path d="" fill="#616D86" transform="translate(0,0)"/>
<path d="" fill="#606D88" transform="translate(0,0)"/>
<path d="" fill="#616E88" transform="translate(0,0)"/>
<path d="" fill="#616E87" transform="translate(0,0)"/>
<path d="" fill="#5D6D86" transform="translate(0,0)"/>
<path d="" fill="#5F6D87" transform="translate(0,0)"/>
<path d="" fill="#5F6B85" transform="translate(0,0)"/>
<path d="" fill="#616C87" transform="translate(0,0)"/>
<path d="" fill="#606D85" transform="translate(0,0)"/>
<path d="" fill="#626D87" transform="translate(0,0)"/>
<path d="" fill="#5E6D85" transform="translate(0,0)"/>
<path d="" fill="#606D86" transform="translate(0,0)"/>
<path d="" fill="#616C86" transform="translate(0,0)"/>
<path d="" fill="#5F6D87" transform="translate(0,0)"/>
<path d="" fill="#606E87" transform="translate(0,0)"/>
<path d="" fill="#606F88" transform="translate(0,0)"/>
<path d="" fill="#606F88" transform="translate(0,0)"/>
<path d="" fill="#5F6E88" transform="translate(0,0)"/>
<path d="" fill="#606D87" transform="translate(0,0)"/>
<path d="" fill="#616E89" transform="translate(0,0)"/>
<path d="" fill="#616E87" transform="translate(0,0)"/>
<path d="" fill="#626F87" transform="translate(0,0)"/>
<path d="" fill="#606F89" transform="translate(0,0)"/>
<path d="" fill="#636F86" transform="translate(0,0)"/>
<path d="" fill="#616F88" transform="translate(0,0)"/>
<path d="" fill="#647086" transform="translate(0,0)"/>
<path d="" fill="#607088" transform="translate(0,0)"/>
<path d="" fill="#61718C" transform="translate(0,0)"/>
<path d="" fill="#5D6E88" transform="translate(0,0)"/>
<path d="" fill="#65728F" transform="translate(0,0)"/>
<path d="" fill="#5E6D8A" transform="translate(0,0)"/>
<path d="" fill="#5D6A89" transform="translate(0,0)"/>
<path d="" fill="#5D6F89" transform="translate(0,0)"/>
<path d="" fill="#61728C" transform="translate(0,0)"/>
<path d="" fill="#60718A" transform="translate(0,0)"/>
<path d="" fill="#61718D" transform="translate(0,0)"/>
<path d="" fill="#626F8C" transform="translate(0,0)"/>
<path d="" fill="#616D86" transform="translate(0,0)"/>
<path d="" fill="#63718C" transform="translate(0,0)"/>
<path d="" fill="#61718B" transform="translate(0,0)"/>
<path d="" fill="#5E6E88" transform="translate(0,0)"/>
<path d="" fill="#61708A" transform="translate(0,0)"/>
<path d="" fill="#5F6F89" transform="translate(0,0)"/>
<path d="" fill="#5F6F89" transform="translate(0,0)"/>
<path d="" fill="#5C5B5C" transform="translate(0,0)"/>
<path d="" fill="#607088" transform="translate(0,0)"/>
<path d="" fill="#5F718A" transform="translate(0,0)"/>
<path d="" fill="#63718D" transform="translate(0,0)"/>
<path d="" fill="#5F7189" transform="translate(0,0)"/>
<path d="" fill="#61738D" transform="translate(0,0)"/>
<path d="" fill="#607089" transform="translate(0,0)"/>
<path d="" fill="#607089" transform="translate(0,0)"/>
<path d="" fill="#5F728A" transform="translate(0,0)"/>
<path d="" fill="#616F8A" transform="translate(0,0)"/>
<path d="" fill="#61728A" transform="translate(0,0)"/>
<path d="" fill="#617188" transform="translate(0,0)"/>
<path d="" fill="#617087" transform="translate(0,0)"/>
<path d="" fill="#61708C" transform="translate(0,0)"/>
<path d="" fill="#61728D" transform="translate(0,0)"/>
<path d="" fill="#617289" transform="translate(0,0)"/>
<path d="" fill="#62748C" transform="translate(0,0)"/>
<path d="" fill="#5F7088" transform="translate(0,0)"/>
<path d="" fill="#536283" transform="translate(0,0)"/>
<path d="" fill="#60708C" transform="translate(0,0)"/>
<path d="" fill="#626F8A" transform="translate(0,0)"/>
<path d="" fill="#616F89" transform="translate(0,0)"/>
<path d="" fill="#676869" transform="translate(0,0)"/>
<path d="" fill="#62738A" transform="translate(0,0)"/>
<path d="" fill="#62708A" transform="translate(0,0)"/>
<path d="" fill="#59595A" transform="translate(0,0)"/>
<path d="" fill="#5F5F5D" transform="translate(0,0)"/>
<path d="" fill="#5B5B5C" transform="translate(0,0)"/>
<path d="" fill="#4F4F4F" transform="translate(0,0)"/>
<path d="" fill="#555755" transform="translate(0,0)"/>
<path d="" fill="#545554" transform="translate(0,0)"/>
</svg>
