<?xml version="1.0" encoding="UTF-8"?>
<svg version="1.1" xmlns="http://www.w3.org/2000/svg" width="1024" height="1024">
<path d="M0 0 C14.56905427 -0.53118084 28.9090846 1.13112707 43.3581543 2.80712891 C45.84355237 3.11779537 45.84355237 3.11779537 47.94580078 3.08251953 C47.94580078 3.74251953 47.94580078 4.40251953 47.94580078 5.08251953 C49.07244141 5.19466797 50.19908203 5.30681641 51.35986328 5.42236328 C88.52870642 10.11539903 127.46176663 35.47983245 150.16650391 64.65087891 C175.69758499 97.7494459 185.45719597 134.8362453 189.69067383 175.76855469 C189.76833481 176.51135178 189.84599579 177.25414886 189.92601013 178.01945496 C190.13709667 180.05811828 190.34097947 182.09752373 190.54443359 184.13696289 C190.62727889 186.96571856 190.62727889 186.96571856 191.94580078 188.08251953 C193.35145995 188.15840881 194.76090006 188.16552001 196.16845703 188.14501953 C197.08385254 188.13639893 197.99924805 188.12777832 198.94238281 188.11889648 C199.95413574 188.10689209 200.96588867 188.0948877 202.00830078 188.08251953 C211.50786224 188.03807458 221.00062768 188.10367306 230.49703979 188.3449707 C232.51499606 188.39367272 234.53326736 188.42872028 236.55151367 188.46337891 C261.08491044 189.14421742 280.22791273 197.18490407 297.94580078 214.08251953 C298.83267578 214.86626953 299.71955078 215.65001953 300.63330078 216.45751953 C317.9081729 236.06683383 321.25818097 260.51532891 325.09277344 285.31298828 C325.70006233 289.23504188 326.32017854 293.15491715 326.94189453 297.07470703 C327.33457307 299.57979769 327.72652658 302.08500213 328.11767578 304.59033203 C328.30199158 305.75597687 328.48630737 306.9216217 328.6762085 308.12258911 C328.8434845 309.21167572 329.0107605 310.30076233 329.18310547 311.42285156 C329.33092468 312.37386749 329.4787439 313.32488342 329.63104248 314.30471802 C329.96511126 317.2529382 329.99920276 320.1179576 329.94580078 323.08251953 C330.93580078 323.41251953 331.92580078 323.74251953 332.94580078 324.08251953 C332.28580078 324.08251953 331.62580078 324.08251953 330.94580078 324.08251953 C331.12689392 325.18525208 331.30798706 326.28798462 331.49456787 327.4241333 C340.69543024 383.4582911 349.84726763 439.5001023 358.89136112 495.55977297 C359.65961279 500.32169611 360.42839699 505.08353306 361.1973877 509.84533691 C362.24159772 516.31176373 363.284391 522.77841804 364.32622719 529.24522781 C364.70805243 531.61448258 365.09020843 533.98368406 365.47273827 536.35282516 C367.23940701 547.29722514 368.99223711 558.24315028 370.6472168 569.20507812 C370.7680535 570.00164133 370.88889021 570.79820454 371.01338863 571.61890602 C374.50622202 594.99808832 372.13662409 618.44037873 357.94580078 638.08251953 C354.54476196 642.34165889 350.76978322 646.20631274 346.94580078 650.08251953 C346.37474609 650.73736328 345.80369141 651.39220703 345.21533203 652.06689453 C336.12442677 662.2561868 322.78135845 667.51088609 309.94580078 671.08251953 C308.89199219 671.38996094 308.89199219 671.38996094 307.81689453 671.70361328 C305.57171829 672.15827319 303.48447055 672.17867644 301.19580078 672.14501953 C300.39658203 672.13599609 299.59736328 672.12697266 298.77392578 672.11767578 C297.86900391 672.10027344 297.86900391 672.10027344 296.94580078 672.08251953 C296.61580078 672.74251953 296.28580078 673.40251953 295.94580078 674.08251953 C240.49486414 674.03847047 185.04393141 673.99084396 129.59301758 673.92353821 C128.77193977 673.92254264 127.95086195 673.92154708 127.104903 673.92052134 C109.25940121 673.89886131 91.41390031 673.87653851 73.5684002 673.85353325 C64.81659639 673.84225502 56.06479238 673.83112321 47.31298828 673.82006836 C46.44209229 673.81896579 45.57119631 673.81786323 44.67390953 673.81672725 C16.46069371 673.78107755 -11.75252092 673.7550904 -39.96575116 673.73412985 C-68.96566508 673.71253369 -97.96555246 673.68115779 -126.96544201 673.6375284 C-131.06425164 673.63136642 -135.16306144 673.6253159 -139.26187134 673.61933327 C-140.47189301 673.61756195 -140.47189301 673.61756195 -141.70635956 673.61575484 C-154.67623183 673.59705489 -167.6460913 673.58862241 -180.61597539 673.58405829 C-193.66445361 673.57924635 -206.71288315 673.563549 -219.76133525 673.53685387 C-227.50758403 673.52133395 -235.25373674 673.51404677 -243.00000019 673.51875024 C-248.79479132 673.52134675 -254.58946498 673.50827758 -260.38422167 673.48928402 C-262.72095873 673.48403074 -265.05771373 673.48376577 -267.39445055 673.4891239 C-291.24795913 673.53822905 -312.09752329 670.80125392 -331.05419922 655.08251953 C-332.33037109 654.04998047 -332.33037109 654.04998047 -333.63232422 652.99658203 C-350.26566888 638.86334132 -358.89406717 620.03980185 -361.65966797 598.66455078 C-361.91580369 596.10349122 -361.91580369 596.10349122 -363.05419922 594.08251953 C-362.76083532 592.07626712 -362.41823529 590.07715956 -362.05419922 588.08251953 C-361.75083889 585.38738081 -361.4615882 582.69273891 -361.18286133 579.99511719 C-360.08236977 569.77664162 -358.56663382 559.63609012 -356.99560547 549.48095703 C-356.68887813 547.48221609 -356.38220348 545.48346707 -356.07557678 543.48471069 C-352.56864797 520.70240948 -348.88642026 497.94787235 -345.20303345 475.193573 C-343.32985584 463.62134644 -341.46489901 452.0477931 -339.59893608 440.47440147 C-338.9700704 436.57420561 -338.34101883 432.67403977 -337.71192932 428.77388 C-334.05608924 406.1067923 -330.40704265 383.43863653 -326.78543091 360.76605225 C-326.17619776 356.95296484 -325.56502778 353.14019587 -324.95211792 349.32769775 C-324.24326464 344.91813939 -323.53803276 340.50801818 -322.83578873 336.09740257 C-322.58143287 334.50378473 -322.32577299 332.91037436 -322.06869125 331.31719398 C-321.72146135 329.16392486 -321.37903179 327.00994604 -321.0378418 324.85571289 C-320.84644119 323.65941757 -320.65504059 322.46312225 -320.45783997 321.23057556 C-320.10278543 318.46145087 -320.04698061 315.86572367 -320.05419922 313.08251953 C-319.58374326 311.43870018 -319.1098984 309.79567039 -318.60903931 308.16085815 C-317.44201676 303.78938592 -316.93198529 299.2771502 -316.28466797 294.80517578 C-315.94984959 292.57658978 -315.61454726 290.34807645 -315.27880859 288.11962891 C-314.76024488 284.64537402 -314.24543657 281.17069767 -313.73950195 277.69458008 C-310.53923702 255.80239159 -306.73762947 235.46635074 -292.05419922 218.08251953 C-291.60689453 217.49083984 -291.15958984 216.89916016 -290.69873047 216.28955078 C-279.18085863 201.52911092 -258.81631638 192.37069038 -240.67724609 189.55908203 C-234.73996318 188.84242138 -228.77732463 188.84892089 -222.80419922 188.76611328 C-220.92341675 188.73494164 -220.92341675 188.73494164 -219.00463867 188.70314026 C-215.69707976 188.64909105 -212.38949258 188.59876543 -209.08184814 188.55029297 C-205.69627883 188.49974535 -202.31079114 188.44423425 -198.92529297 188.38916016 C-192.30166038 188.28240664 -185.67796608 188.18056745 -179.05419922 188.08251953 C-179.00653915 187.19535751 -178.95887909 186.3081955 -178.90977478 185.39414978 C-178.00329668 168.6934767 -176.74809833 152.43388008 -173.05419922 136.08251953 C-172.87518066 135.27314941 -172.69616211 134.4637793 -172.51171875 133.62988281 C-165.36762824 102.06460156 -150.34244283 75.25017923 -127.42529297 52.46923828 C-125.62852615 50.66063116 -124.00195464 48.8903861 -122.42919922 46.89501953 C-120.05419922 44.08251953 -120.05419922 44.08251953 -117.05419922 42.08251953 C-115.99396562 41.26844496 -114.94106659 40.44476545 -113.89404297 39.61376953 C-104.1291235 31.98750586 -94.07083011 25.7340233 -83.05419922 20.08251953 C-82.11374756 19.58993652 -82.11374756 19.58993652 -81.15429688 19.08740234 C-69.86821523 13.22537785 -54.93726582 6.08251953 -42.05419922 6.08251953 C-41.72419922 5.42251953 -41.39419922 4.76251953 -41.05419922 4.08251953 C-39.08325195 3.59594727 -39.08325195 3.59594727 -36.48779297 3.26611328 C-35.53549805 3.14212158 -34.58320313 3.01812988 -33.60205078 2.89038086 C-32.57563477 2.76816162 -31.54921875 2.64594238 -30.49169922 2.52001953 C-29.44336914 2.39071045 -28.39503906 2.26140137 -27.31494141 2.12817383 C-18.20518101 1.03726397 -9.16832363 0.36830204 0 0 Z M-92.05419922 90.08251953 C-92.85470703 90.87142578 -93.65521484 91.66033203 -94.47998047 92.47314453 C-119.2424235 118.30477768 -124.34951061 154.98874745 -126.05419922 189.08251953 C-39.59419922 189.08251953 46.86580078 189.08251953 135.94580078 189.08251953 C136.01516468 173.59959367 136.01516468 173.59959367 134.25830078 158.52001953 C134.07823486 157.45920166 133.89816895 156.39838379 133.71264648 155.30541992 C128.18227007 124.11938874 114.17086064 95.53994912 87.70385742 76.87231445 C68.59893 63.8495269 48.0531725 57.06826828 25.19580078 54.45751953 C24.10525391 54.32345703 23.01470703 54.18939453 21.89111328 54.05126953 C-19.75215266 49.22734511 -62.06250861 60.13410697 -92.05419922 90.08251953 Z M-65.92919922 281.83251953 C-66.48349609 282.30173828 -67.03779297 282.77095703 -67.60888672 283.25439453 C-71.33018966 287.96133988 -71.36209345 293.575482 -71.35498047 299.33251953 C-71.35926559 300.10885742 -71.36355072 300.88519531 -71.3679657 301.68505859 C-71.37368302 303.31883778 -71.37422851 304.9526424 -71.36987305 306.58642578 C-71.36670859 309.07515081 -71.39021893 311.56269075 -71.41552734 314.05126953 C-71.41780029 315.64501804 -71.41850385 317.23876973 -71.41748047 318.83251953 C-71.42669022 319.57018555 -71.43589996 320.30785156 -71.44538879 321.06787109 C-71.38874268 327.44227647 -69.79020843 331.34651032 -65.30419922 335.83251953 C-58.38512103 340.62265058 -51.52177007 340.37174027 -43.37084961 340.34130859 C-42.2122493 340.34481323 -41.05364899 340.34831787 -39.85993958 340.35192871 C-36.04051676 340.36071132 -32.22128008 340.3549086 -28.40185547 340.34814453 C-25.74059317 340.34949227 -23.07933646 340.35143087 -20.41807556 340.35394287 C-14.84404496 340.35757516 -9.27006745 340.35280334 -3.69604492 340.34326172 C2.73246266 340.33238391 9.16084329 340.33590078 15.58934778 340.34691453 C21.12418636 340.35601485 26.6589869 340.35725914 32.19383055 340.35203719 C35.49271379 340.34893185 38.79152488 340.34926279 42.09040642 340.35511017 C45.77137644 340.36020272 49.45210458 340.35242625 53.13305664 340.34130859 C54.21538574 340.34535706 55.29771484 340.34940552 56.4128418 340.35357666 C67.34724846 340.31538955 67.34724846 340.31538955 76.82080078 335.39501953 C77.65224609 334.70859375 77.65224609 334.70859375 78.50048828 334.00830078 C82.12009662 329.18541724 82.20140038 323.2026211 82.21142578 317.39111328 C82.21429596 316.32861107 82.21429596 316.32861107 82.21722412 315.24464417 C82.218576 313.75806316 82.21494982 312.27146995 82.20654297 310.78491211 C82.19581262 308.52251479 82.20648008 306.26090844 82.21923828 303.99853516 C82.21791682 302.54605946 82.2153547 301.09358426 82.21142578 299.64111328 C82.20804199 297.68129517 82.20804199 297.68129517 82.20458984 295.68188477 C81.72297947 288.98341138 79.63634845 284.8821497 74.94580078 280.08251953 C62.70920393 274.07612887 44.09229265 276.91871126 30.79736328 276.91455078 C28.37031027 276.91133193 25.94325745 276.9079674 23.51620483 276.90446472 C18.45480906 276.8985078 13.39343028 276.89662154 8.33203125 276.8972168 C1.85602223 276.89731885 -4.61987822 276.88360662 -11.09586143 276.86644459 C-16.09734599 276.85532076 -21.09880418 276.85329762 -26.10029984 276.85382652 C-28.48844404 276.85264931 -30.87658899 276.84824208 -33.26472092 276.84049416 C-36.60006107 276.83067574 -39.93516368 276.8335785 -43.27050781 276.83959961 C-44.24833221 276.8339801 -45.22615662 276.8283606 -46.23361206 276.8225708 C-53.12773245 276.85412882 -60.51318739 277.01252814 -65.92919922 281.83251953 Z " fill="#5D749C" transform="translate(512.05419921875,156.91748046875)"/>
<path d="M0 0 C14.56905427 -0.53118084 28.9090846 1.13112707 43.3581543 2.80712891 C45.84355237 3.11779537 45.84355237 3.11779537 47.94580078 3.08251953 C47.94580078 3.74251953 47.94580078 4.40251953 47.94580078 5.08251953 C49.07244141 5.19466797 50.19908203 5.30681641 51.35986328 5.42236328 C88.52870642 10.11539903 127.46176663 35.47983245 150.16650391 64.65087891 C174.70552599 96.46333775 184.9152289 132.11530023 189.32080078 171.52001953 C189.41251556 172.3361673 189.50423035 173.15231506 189.59872437 173.99319458 C189.85535867 176.31255671 190.10225585 178.63268096 190.34423828 180.95361328 C190.42099289 181.65972748 190.4977475 182.36584167 190.576828 183.09335327 C190.74231827 184.75271853 190.85025313 186.41766196 190.94580078 188.08251953 C189.94580078 189.08251953 189.94580078 189.08251953 187.77549744 189.20277405 C186.81841385 189.20055344 185.86133026 189.19833282 184.87524414 189.19604492 C183.79419907 189.19596939 182.71315399 189.19589386 181.59934998 189.19581604 C179.83531578 189.18807411 179.83531578 189.18807411 178.03564453 189.18017578 C176.23988731 189.17805336 176.23988731 189.17805336 174.40785217 189.17588806 C170.56631012 189.17026932 166.72482536 189.15771364 162.88330078 189.14501953 C160.28629641 189.14000695 157.68929113 189.13544362 155.09228516 189.13134766 C148.710104 189.12029381 142.32795648 189.10353745 135.94580078 189.08251953 C135.89634308 188.36199905 135.84688538 187.64147858 135.79592896 186.89912415 C135.56310692 183.56004501 135.32089763 180.22170616 135.07861328 176.88330078 C135.00102783 175.75057739 134.92344238 174.617854 134.84350586 173.45080566 C132.24499514 138.18261304 120.69242168 105.94043614 93.68017578 82.28564453 C89.32902463 78.77985989 84.78776572 75.86111118 79.94580078 73.08251953 C78.82560547 72.42380859 77.70541016 71.76509766 76.55126953 71.08642578 C60.52258478 61.93088956 43.42879079 57.5400755 25.19580078 55.45751953 C24.10525391 55.32345703 23.01470703 55.18939453 21.89111328 55.05126953 C-8.41098458 51.54109744 -44.126932 55.86402729 -70.05419922 73.08251953 C-70.71419922 73.74251953 -71.37419922 74.40251953 -72.05419922 75.08251953 C-73.37740191 75.95229716 -74.71249693 76.8040597 -76.05419922 77.64501953 C-102.92165357 95.42748531 -115.52867134 123.62068033 -122.05419922 154.08251953 C-123.7696799 162.98254149 -124.3410488 171.99952778 -124.80810547 181.03564453 C-125.05419922 184.08251953 -125.05419922 184.08251953 -126.05419922 187.08251953 C-124.40419922 187.08251953 -122.75419922 187.08251953 -121.05419922 187.08251953 C-121.05419922 187.41251953 -121.05419922 187.74251953 -121.05419922 188.08251953 C-124.5657302 188.88155157 -127.79696028 189.20479992 -131.39526367 189.19604492 C-132.43596512 189.19596939 -133.47666656 189.19589386 -134.54890442 189.19581604 C-135.66053452 189.19065475 -136.77216461 189.18549347 -137.91748047 189.18017578 C-139.06460007 189.17876083 -140.21171967 189.17734589 -141.39360046 189.17588806 C-145.05132676 189.17029814 -148.70899147 189.15774742 -152.36669922 189.14501953 C-154.84912021 189.14000323 -157.33154216 189.13544055 -159.81396484 189.13134766 C-165.89406392 189.120332 -171.97412717 189.10360383 -178.05419922 189.08251953 C-184.06082855 177.06926086 -175.91167884 148.81332361 -173.05419922 136.08251953 C-172.87518066 135.27169922 -172.69616211 134.46087891 -172.51171875 133.62548828 C-165.36666624 102.06233036 -150.34101834 75.2487632 -127.42529297 52.46923828 C-125.62852615 50.66063116 -124.00195464 48.8903861 -122.42919922 46.89501953 C-120.05419922 44.08251953 -120.05419922 44.08251953 -117.05419922 42.08251953 C-115.99396562 41.26844496 -114.94106659 40.44476545 -113.89404297 39.61376953 C-104.1291235 31.98750586 -94.07083011 25.7340233 -83.05419922 20.08251953 C-82.42723145 19.75413086 -81.80026367 19.42574219 -81.15429688 19.08740234 C-69.86821523 13.22537785 -54.93726582 6.08251953 -42.05419922 6.08251953 C-41.72419922 5.42251953 -41.39419922 4.76251953 -41.05419922 4.08251953 C-39.08325195 3.59594727 -39.08325195 3.59594727 -36.48779297 3.26611328 C-35.53549805 3.14212158 -34.58320313 3.01812988 -33.60205078 2.89038086 C-32.57563477 2.76816162 -31.54921875 2.64594238 -30.49169922 2.52001953 C-29.44336914 2.39071045 -28.39503906 2.26140137 -27.31494141 2.12817383 C-18.20518101 1.03726397 -9.16832363 0.36830204 0 0 Z " fill="#D2E1EE" transform="translate(512.05419921875,156.91748046875)"/>
<path d="M0 0 C51.93056318 -0.09048933 51.93056318 -0.09048933 74.7827034 0.44414043 C76.90555693 0.489463 79.02842114 0.53428788 81.15129471 0.57866192 C86.52321511 0.69219051 91.89497089 0.81209306 97.26671219 0.93376446 C102.83445239 1.05859793 108.40233403 1.17679664 113.9702034 1.29570293 C124.73596871 1.52651817 135.50157064 1.7641275 146.2670784 2.00664043 C146.2670784 2.33664043 146.2670784 2.66664043 146.2670784 3.00664043 C5.3570784 3.00664043 -135.5529216 3.00664043 -280.7329216 3.00664043 C-278.29334297 0.5670618 -277.68190381 0.75437647 -274.33730125 0.74492741 C-272.94252994 0.73372917 -272.94252994 0.73372917 -271.51958144 0.7223047 C-270.49086656 0.72423944 -269.46215169 0.72617417 -268.40226364 0.72816753 C-267.31426731 0.72237513 -266.22627099 0.71658273 -265.10530508 0.7106148 C-261.43248248 0.69351287 -257.75978481 0.6907291 -254.08692551 0.68779278 C-251.46167312 0.67849884 -248.8364237 0.66833097 -246.21117783 0.65735149 C-240.53478278 0.63501557 -234.85840589 0.62003679 -229.18197632 0.6099844 C-220.91815573 0.59534747 -212.65439689 0.56978118 -204.39061253 0.54165311 C-190.90902904 0.4960762 -177.42743646 0.45953883 -163.94581223 0.42851543 C-150.97671916 0.39865406 -138.00765049 0.36437921 -125.03858566 0.32402325 C-124.24708829 0.3215617 -123.45559092 0.31910015 -122.64010878 0.31656401 C-119.4548126 0.30664012 -116.26951652 0.2966862 -113.08422057 0.28669205 C-75.3895217 0.16852313 -37.6948264 0.06705472 0 0 Z " fill="#4A5D87" transform="translate(554.7329216003418,344.99335956573486)"/>
<path d="M0 0 C15.89904 -0.02339156 31.79807534 -0.04100988 47.6971283 -0.05181217 C55.07982967 -0.05696185 62.46252034 -0.06397918 69.84521484 -0.07543945 C76.28222282 -0.08542693 82.71922304 -0.09186309 89.15623856 -0.09408849 C92.56252249 -0.09538871 95.96878423 -0.09843078 99.37506104 -0.10573006 C103.18364778 -0.11299753 106.99218867 -0.11398852 110.80078125 -0.11352539 C111.92215988 -0.11712067 113.04353851 -0.12071594 114.19889832 -0.12442017 C119.89714371 -0.11693103 125.36469351 0.14204573 131 1 C131 1.33 131 1.66 131 2 C125.20634144 3.24345003 119.4923241 3.14775828 113.59790039 3.14526367 C112.45734695 3.14862228 111.31679352 3.1519809 110.14167786 3.15544128 C106.37699287 3.16492874 102.61235245 3.16689318 98.84765625 3.16796875 C96.22741172 3.17118244 93.60716737 3.1745466 90.98692322 3.17805481 C85.49689443 3.18444098 80.0068777 3.18593814 74.5168457 3.18530273 C68.18207302 3.18470188 61.84738548 3.1952589 55.51263434 3.2110464 C49.40441035 3.22572371 43.29622707 3.22929012 37.18798637 3.22869301 C34.59526662 3.22987267 32.00254622 3.23429363 29.40983772 3.24202538 C25.78365134 3.25182806 22.15768409 3.24894612 18.53149414 3.24291992 C16.92830322 3.25134918 16.92830322 3.25134918 15.29272461 3.25994873 C9.79634385 3.23675091 5.19253938 2.83993722 0 1 C0 0.67 0 0.34 0 0 Z " fill="#586C94" transform="translate(451,496)"/>
<path d="M0 0 C1.18932129 -0.00350464 2.37864258 -0.00700928 3.60400391 -0.01062012 C6.85407039 -0.01789837 10.10397312 -0.01621442 13.35403705 -0.00986195 C16.76337691 -0.00478227 20.17270619 -0.00949897 23.58204651 -0.01263428 C29.30748444 -0.01626869 35.0328707 -0.01148913 40.75830078 -0.00195312 C47.36573794 0.00892524 53.9730516 0.00540827 60.58048576 -0.00560594 C66.26475624 -0.0147 71.94898967 -0.01595359 77.63326508 -0.0107286 C81.02323018 -0.00761986 84.41313736 -0.00716918 87.80309868 -0.01380157 C91.58496288 -0.01888687 95.36659086 -0.01112778 99.1484375 0 C100.26398514 -0.00404846 101.37953278 -0.00809692 102.52888489 -0.01226807 C108.12725904 0.01821083 112.85376963 0.36841168 118.13891602 2.25878906 C118.13891602 2.58878906 118.13891602 2.91878906 118.13891602 3.25878906 C117.49176636 3.25694548 116.8446167 3.25510189 116.17785645 3.25320244 C100.41097331 3.20898002 84.64411183 3.17591141 68.87718201 3.15516472 C61.25232716 3.14486439 53.62751378 3.13082788 46.00268555 3.10791016 C39.3547265 3.08793815 32.7067975 3.07506359 26.05880928 3.07061207 C22.54071456 3.06801113 19.02270578 3.06192384 15.50463867 3.04732895 C11.57151716 3.03114543 7.63847873 3.03081182 3.70532227 3.03173828 C1.96714989 3.02095245 1.96714989 3.02095245 0.19386292 3.00994873 C-7.67318306 3.02998319 -15.01480891 3.1707774 -21.36108398 8.38378906 C-22.03139648 8.92261719 -22.70170898 9.46144531 -23.39233398 10.01660156 C-23.87702148 10.42652344 -24.36170898 10.83644531 -24.86108398 11.25878906 C-23.50428131 6.81834393 -21.72755341 4.80714391 -17.86108398 2.25878906 C-12.05749886 -0.36083797 -6.24033487 -0.02260594 0 0 Z " fill="#51638C" transform="translate(466.861083984375,431.7412109375)"/>
<path d="M0 0 C1.96254148 2.94381222 2.78489307 5.2085659 3.8125 8.5625 C10.49272295 28.871353 24.28170174 44.8450308 43 55 C46.94014952 56.85139556 50.91034866 58.50944942 55 60 C55 60.33 55 60.66 55 61 C41.64454701 60.73812837 30.12972109 50.9942478 21 42 C11.02151086 31.58267338 0.44827046 17.54955646 -0.1328125 2.578125 C-0.08898437 1.72734375 -0.04515625 0.8765625 0 0 Z " fill="#52648A" transform="translate(153,764)"/>
<path d="M0 0 C1.47735558 -0.00679263 2.95469972 -0.01700218 4.43200684 -0.03076172 C6.51197527 -0.04870215 8.59153283 -0.05292059 10.67156982 -0.05322266 C12.44769653 -0.05938599 12.44769653 -0.05938599 14.25970459 -0.06567383 C18.03432272 0.20338162 21.07665296 1.02165344 24.66766357 2.17724609 C24.66766357 2.50724609 24.66766357 2.83724609 24.66766357 3.17724609 C16.33088534 3.20048696 7.99412081 3.2182208 -0.34268188 3.22905827 C-4.21440786 3.2342615 -8.08611155 3.24131232 -11.95782471 3.25268555 C-15.69904802 3.26360582 -19.44025 3.26954219 -23.18148804 3.27212334 C-24.60391577 3.27396119 -26.02634242 3.27754986 -27.44876099 3.28297615 C-34.49475226 3.30876961 -41.36661297 3.30062449 -48.33233643 2.17724609 C-48.33233643 1.84724609 -48.33233643 1.51724609 -48.33233643 1.17724609 C-32.2255337 0.56065499 -16.11948828 0.06606882 0 0 Z " fill="#4B5E85" transform="translate(560.3323364257813,431.82275390625)"/>
<path d="M0 0 C0.66 0 1.32 0 2 0 C3.15168616 6.91734971 4.28947018 13.83688663 5.41796875 20.75805664 C5.80284929 23.10850791 6.19081918 25.4584556 6.58203125 27.80786133 C7.14631328 31.20003126 7.6991745 34.59390344 8.25 37.98828125 C8.42499023 39.02519608 8.59998047 40.0621109 8.78027344 41.13044739 C9.84986953 47.80987458 10.20966808 54.2387765 10 61 C9.67 61 9.34 61 9 61 C7.10794658 49.70735121 5.22433078 38.41332605 3.35137939 27.11749268 C3.04211992 25.25382431 2.7318342 23.3903263 2.42138672 21.52685547 C1.98406233 18.89371614 1.55280551 16.25969944 1.125 13.625 C1.00535889 12.90981201 0.88571777 12.19462402 0.76245117 11.45776367 C0.14499572 7.60044958 -0.10881112 3.90511011 0 0 Z " fill="#52658B" transform="translate(842,486)"/>
<path d="M0 0 C4.21779303 1.50635465 5.7747674 4.24012422 8 8 C9.26459707 11.79379122 9.16238301 15.36324059 9.16796875 19.31640625 C9.17129715 20.12867172 9.17462555 20.94093719 9.17805481 21.77781677 C9.18311405 23.49339227 9.18546344 25.2089776 9.18530273 26.92456055 C9.18749458 29.55599001 9.20567522 32.18700379 9.22460938 34.81835938 C9.22754238 36.48437356 9.2295278 38.15038975 9.23046875 39.81640625 C9.23765427 40.60600235 9.24483978 41.39559845 9.25224304 42.2091217 C9.2288314 47.7711686 9.2288314 47.7711686 7 50 C6.98018066 48.91058105 6.96036133 47.82116211 6.93994141 46.69873047 C6.86360942 42.63942167 6.77493539 38.58045847 6.68261719 34.52148438 C6.64444112 32.76797329 6.60956876 31.01438692 6.578125 29.26074219 C6.53222641 26.73345114 6.4742743 24.20667322 6.4140625 21.6796875 C6.40251129 20.90132538 6.39096008 20.12296326 6.37905884 19.3210144 C6.18715666 12.17102913 4.6354236 7.56250832 0 2 C0 1.34 0 0.68 0 0 Z " fill="#50638B" transform="translate(587,436)"/>
<path d="M0 0 C0.66 0 1.32 0 2 0 C2.86466176 5.2270643 3.71873338 10.45571481 4.56347656 15.68603516 C4.85166073 17.46123671 5.14262093 19.23599012 5.43652344 21.01025391 C8.43927701 39.15955016 8.43927701 39.15955016 8 48 C7.67 48 7.34 48 7 48 C5.60481001 42.68968314 4.49864645 37.42878084 3.7109375 31.9921875 C3.60278717 31.26307159 3.49463684 30.53395569 3.38320923 29.78274536 C3.15778188 28.25535798 2.93436311 26.72767288 2.71289062 25.19970703 C2.37471795 22.87305951 2.027611 20.54786333 1.6796875 18.22265625 C1.46040089 16.72924536 1.24163298 15.2357582 1.0234375 13.7421875 C0.92034271 13.05454315 0.81724792 12.3668988 0.71102905 11.65841675 C0.15018895 7.73917033 -0.10061352 3.95772121 0 0 Z " fill="#51648A" transform="translate(859,591)"/>
<path d="M0 0 C2.87666273 1.33061492 5.21136636 2.82287977 7.625 4.875 C8.51058594 5.61363281 8.51058594 5.61363281 9.4140625 6.3671875 C11.16097549 8.16573338 11.9340743 9.73541068 13 12 C14.98324345 15.2211916 17.00382654 18.41725874 19.02734375 21.61328125 C24.26803593 30.61066763 24.26803593 30.61066763 23.57397461 34.20825195 C23.28985718 35.09516724 23.28985718 35.09516724 23 36 C22.45730469 34.87980469 21.91460938 33.75960937 21.35546875 32.60546875 C20.63313338 31.13265508 19.91045938 29.66000746 19.1875 28.1875 C18.65286133 27.08051758 18.65286133 27.08051758 18.10742188 25.95117188 C17.75615234 25.23896484 17.40488281 24.52675781 17.04296875 23.79296875 C16.56380005 22.81106567 16.56380005 22.81106567 16.07495117 21.80932617 C14.92707863 19.8772609 13.59120067 18.57437648 12 17 C11.443125 15.948125 10.88625 14.89625 10.3125 13.8125 C8.09715265 9.72931077 4.98984578 6.83910858 1.609375 3.69921875 C0 2 0 2 0 0 Z " fill="#526489" transform="translate(804,367)"/>
<path d="M0 0 C0.33 0 0.66 0 1 0 C0.60135368 13.55397488 -1.59823372 26.67428631 -4 40 C-4.33 40 -4.66 40 -5 40 C-5.27761168 31.25373963 -4.4833834 22.99863142 -3.0625 14.375 C-2.88009766 13.20582031 -2.69769531 12.03664063 -2.50976562 10.83203125 C-1.15055006 2.30110013 -1.15055006 2.30110013 0 0 Z " fill="#506287" transform="translate(158,692)"/>
<path d="M0 0 C3.4941425 3.4941425 3.35868913 8.68921077 4.125 13.4375 C4.30675781 14.48099609 4.48851562 15.52449219 4.67578125 16.59960938 C5.80851274 23.45987417 6.23314549 30.05140093 6 37 C4.1525283 33.76184906 3.49337135 30.84116395 2.9296875 27.16796875 C2.75566406 26.03939453 2.58164062 24.91082031 2.40234375 23.74804688 C2.22832031 22.57306641 2.05429687 21.39808594 1.875 20.1875 C1.69324219 19.02412109 1.51148438 17.86074219 1.32421875 16.66210938 C0.47551485 11.05619678 -0.24838029 5.67134989 0 0 Z " fill="#51658B" transform="translate(836,448)"/>
<path d="M0 0 C-1.68630877 5.05892632 -6.59102027 6.76602061 -11.16748047 9.12451172 C-19.38734031 13.05155907 -27.82114135 15.80516304 -37 15 C-37 14.67 -37 14.34 -37 14 C-35.76765625 13.70867188 -34.5353125 13.41734375 -33.265625 13.1171875 C-22.78489274 10.55398222 -12.53762224 8.0110117 -3.80859375 1.3203125 C-2 0 -2 0 0 0 Z " fill="#506287" transform="translate(850,813)"/>
<path d="M0 0 C3.71398548 6.88000589 3.10274133 13.71211354 2.1875 21.25 C2.10532227 21.93545898 2.02314453 22.62091797 1.93847656 23.32714844 C1.42142506 27.15183624 0.61181136 30.49073982 -1 34 C-2.1361618 30.84399499 -1.77588831 28.4763547 -1.27368164 25.22241211 C-0.69545597 20.52697204 -0.61638556 15.7868384 -0.4375 11.0625 C-0.39431641 9.99708984 -0.35113281 8.93167969 -0.30664062 7.83398438 C-0.20125511 5.22276557 -0.09912912 2.61146254 0 0 Z " fill="#4F6287" transform="translate(882,736)"/>
<path d="M0 0 C0.66 0 1.32 0 2 0 C2 9.9 2 19.8 2 30 C1.34 29.67 0.68 29.34 0 29 C-0.37890625 27.00390625 -0.37890625 27.00390625 -0.5625 24.5625 C-0.8061175 21.15371795 -0.8061175 21.15371795 -2 18 C-1.68377223 15.99722415 -1.34450114 13.99810662 -1 12 C-0.61770586 8.00375194 -0.30442517 4.00286718 0 0 Z " fill="#57698E" transform="translate(151,733)"/>
<path d="M0 0 C0.33 0 0.66 0 1 0 C0.48202981 5.33645599 -0.78333535 9.22033005 -3.25 14.0625 C-3.83265625 15.22910156 -4.4153125 16.39570312 -5.015625 17.59765625 C-7.08072659 21.13841114 -9.29604188 23.93706813 -12 27 C-12.66 26.67 -13.32 26.34 -14 26 C-13.40832031 25.12859375 -12.81664062 24.2571875 -12.20703125 23.359375 C-7.19825308 15.85415146 -3.10765318 8.5265258 0 0 Z " fill="#516389" transform="translate(879,771)"/>
<path d="M0 0 C0.66 0 1.32 0 2 0 C0.57220531 3.73685978 -1.10631355 7.25729576 -2.9375 10.8125 C-5.29226936 15.47022228 -7.29387084 20.07118243 -9 25 C-9.33 25 -9.66 25 -10 25 C-9.81724776 15.86238798 -4.98579289 7.47868934 0 0 Z " fill="#536589" transform="translate(215,381)"/>
<path d="M0 0 C0.33 0 0.66 0 1 0 C0.88509088 2.68826864 0.75836801 5.37513469 0.625 8.0625 C0.5940625 8.81466797 0.563125 9.56683594 0.53125 10.34179688 C0.27941541 15.18961281 -0.49168365 19.38308043 -2 24 C-2.33 24 -2.66 24 -3 24 C-3.31727361 16.19154399 -2.58238397 8.65781442 -1 1 C-0.67 0.67 -0.34 0.34 0 0 Z " fill="#526489" transform="translate(168,630)"/>
<path d="M0 0 C0.33 0 0.66 0 1 0 C1.26077333 6.78010656 0.64483231 13.40036418 -1 20 C-1.66 20.66 -2.32 21.32 -3 22 C-3.9940049 16.0762681 -4.0687639 11.77076245 -2 6 C-1.62875 4.865625 -1.2575 3.73125 -0.875 2.5625 C-0.58625 1.716875 -0.2975 0.87125 0 0 Z " fill="#53668D" transform="translate(196,457)"/>
<path d="M0 0 C0.99 0.495 0.99 0.495 2 1 C3.92341015 8.20685159 4.29545979 15.58067632 4 23 C1.69642191 19.54463286 1.42391256 17.27820549 0.875 13.1875 C0.70742188 11.98480469 0.53984375 10.78210938 0.3671875 9.54296875 C0.0339194 6.3272861 -0.06923227 3.22919108 0 0 Z " fill="#506388" transform="translate(830,411)"/>
<path d="M0 0 C0.66 0 1.32 0 2 0 C2.48350422 7.89723556 0.67664721 15.33532703 -1 23 C-1.33 23 -1.66 23 -2 23 C-2.31918373 15.14453364 -1.35709504 7.73059495 0 0 Z " fill="#54678D" transform="translate(187,506)"/>
<path d="M0 0 C0.66 0 1.32 0 2 0 C3.42625566 7.41143564 4.30071865 14.44862068 4 22 C2.02137273 18.59975397 1.43933337 15.43669339 0.875 11.5625 C0.70742188 10.45003906 0.53984375 9.33757813 0.3671875 8.19140625 C0.04822056 5.4191085 -0.07289361 2.7855773 0 0 Z " fill="#506389" transform="translate(867,641)"/>
<path d="M0 0 C0.33 0 0.66 0 1 0 C-0.15462428 16.11560694 -0.15462428 16.11560694 -1 21 C-1.66 21.33 -2.32 21.66 -3 22 C-3.41136629 14.12309743 -2.436168 7.49701701 0 0 Z " fill="#53658C" transform="translate(162,669)"/>
<path d="M0 0 C-2.86632944 2.86632944 -6.29316426 3.2315668 -10.125 4.125 C-10.87910156 4.30675781 -11.63320312 4.48851562 -12.41015625 4.67578125 C-14.27191946 5.12354709 -16.13577253 5.56260722 -18 6 C-18 5.34 -18 4.68 -18 4 C-6.66287016 -0.59225513 -6.66287016 -0.59225513 0 0 Z " fill="#53658A" transform="translate(267,349)"/>
<path d="M0 0 C0.99 0.495 0.99 0.495 2 1 C3.2943008 6.95378366 3.09874503 12.93266655 3 19 C-0.22722983 12.84727321 -0.13602083 6.8010413 0 0 Z " fill="#506287" transform="translate(879,714)"/>
<path d="M0 0 C0.33 0 0.66 0 1 0 C1.24991456 6.65050424 0.73955334 12.56986533 -1 19 C-1.33 19 -1.66 19 -2 19 C-2.0991667 12.90675749 -2.17328971 6.99681407 -1 1 C-0.67 0.67 -0.34 0.34 0 0 Z " fill="#526489" transform="translate(191,486)"/>
<path d="M0 0 C0.33 0 0.66 0 1 0 C1.20190089 6.35987804 0.6277833 11.85221129 -1 18 C-1.33 18 -1.66 18 -2 18 C-2.10452045 12.22814851 -2.08808374 6.6822151 -1 1 C-0.67 0.67 -0.34 0.34 0 0 Z " fill="#54678C" transform="translate(184,530)"/>
<path d="M0 0 C0.33 0 0.66 0 1 0 C1.66 6.6 2.32 13.2 3 20 C2.01 20 1.02 20 0 20 C-1.17829199 17.64341603 -1.04414372 16.47426764 -0.87890625 13.8671875 C-0.83056641 13.06152344 -0.78222656 12.25585938 -0.73242188 11.42578125 C-0.67634766 10.58402344 -0.62027344 9.74226563 -0.5625 8.875 C-0.51029297 8.02550781 -0.45808594 7.17601562 -0.40429688 6.30078125 C-0.27448622 4.20020876 -0.1378826 2.10005809 0 0 Z " fill="#C0CFDE" transform="translate(700,325)"/>
<path d="M0 0 C0.33 0 0.66 0 1 0 C2.10765663 6.86747109 1.700773 12.26718787 0 19 C-0.33 19 -0.66 19 -1 19 C-1.09507063 12.56688704 -1.15316726 6.34241995 0 0 Z " fill="#55698F" transform="translate(154,713)"/>
<path d="M0 0 C4.22141034 1.50764655 5.80349864 4.21292869 8 8 C8.75 10.375 8.75 10.375 9 12 C8.34 12 7.68 12 7 12 C6.401875 10.906875 5.80375 9.81375 5.1875 8.6875 C3.69770009 6.05781761 2.19726601 4.08740271 0 2 C0 1.34 0 0.68 0 0 Z " fill="#51648B" transform="translate(587,436)"/>
<path d="M0 0 C2.99220268 1.36370299 5.29026529 2.94908083 7.75 5.125 C8.67039062 5.93324219 8.67039062 5.93324219 9.609375 6.7578125 C10.06828125 7.16773438 10.5271875 7.57765625 11 8 C9.234375 8.70703125 9.234375 8.70703125 7 9 C5.078125 7.63671875 5.078125 7.63671875 3.25 5.6875 C2.63640625 5.05199219 2.0228125 4.41648437 1.390625 3.76171875 C0 2 0 2 0 0 Z " fill="#586B90" transform="translate(804,367)"/>
<path d="M0 0 C0 3 0 3 -1.96875 5.26171875 C-2.8040625 6.06222656 -3.639375 6.86273437 -4.5 7.6875 C-5.3353125 8.49574219 -6.170625 9.30398438 -7.03125 10.13671875 C-8.00578125 11.05904297 -8.00578125 11.05904297 -9 12 C-9.99 11.67 -10.98 11.34 -12 11 C-8.04 7.37 -4.08 3.74 0 0 Z " fill="#4A5A81" transform="translate(863,800)"/>
<path d="M0 0 C3.99500618 1.3697164 6.80009492 3.25722422 10 6 C9.67 6.66 9.34 7.32 9 8 C7.49460339 7.05016642 5.99579653 6.08988109 4.5 5.125 C3.6646875 4.59132813 2.829375 4.05765625 1.96875 3.5078125 C1.3190625 3.01023437 0.669375 2.51265625 0 2 C0 1.34 0 0.68 0 0 Z " fill="#516388" transform="translate(792,358)"/>
<path d="M0 0 C0.75 1.75 0.75 1.75 1 4 C-0.6875 6.3125 -0.6875 6.3125 -3 8 C-5.25 7.75 -5.25 7.75 -7 7 C-5.47005208 5.76302083 -3.94010417 4.52604167 -2.41015625 3.2890625 C-0.86733563 2.0333609 -0.86733563 2.0333609 0 0 Z " fill="#566A90" transform="translate(592,487)"/>
<path d="M0 0 C0 0.66 0 1.32 0 2 C2.64 2.33 5.28 2.66 8 3 C8 3.33 8 3.66 8 4 C6.41590006 3.88512252 4.83271037 3.75765492 3.25 3.625 C2.36828125 3.55539063 1.4865625 3.48578125 0.578125 3.4140625 C-1.99066382 3.00149945 -3.75841015 2.28839043 -6 1 C-3.92446352 0.4465236 -2.15634036 0 0 0 Z " fill="#C9D7E3" transform="translate(560,160)"/>
<path d="M0 0 C0.99 0.33 1.98 0.66 3 1 C0.69 3.64 -1.62 6.28 -4 9 C-4.33 8.01 -4.66 7.02 -5 6 C-3.59554165 3.7363436 -1.8032087 1.9791315 0 0 Z " fill="#506287" transform="translate(224,370)"/>
<path d="M0 0 C0.99 0.33 1.98 0.66 3 1 C-1.455 3.97 -1.455 3.97 -6 7 C-4.14418503 3.28837006 -3.44285416 1.98224936 0 0 Z " fill="#53658B" transform="translate(234,362)"/>
<path d="M0 0 C1.32 0.33 2.64 0.66 4 1 C1.36 2.98 -1.28 4.96 -4 7 C-2.92598892 4.08482708 -2.22189824 2.22189824 0 0 Z " fill="#566990" transform="translate(446,436)"/>
<path d="M0 0 C1.65 0 3.3 0 5 0 C5 0.33 5 0.66 5 1 C3.35 1 1.7 1 0 1 C0 0.67 0 0.34 0 0 Z " fill="#65789F" transform="translate(565,831)"/>
<path d="M0 0 C1.65 0 3.3 0 5 0 C5 0.33 5 0.66 5 1 C3.35 1 1.7 1 0 1 C0 0.67 0 0.34 0 0 Z " fill="#8597B6" transform="translate(307,344)"/>
<path d="M0 0 C4 1 4 1 4 1 Z " fill="#65789C" transform="translate(788,831)"/>
<path d="M0 0 C4 1 4 1 4 1 Z " fill="#65779C" transform="translate(217,830)"/>
<path d="M0 0 C1 4 1 4 1 4 Z " fill="#687BA0" transform="translate(192,464)"/>
<path d="M0 0 C3 1 3 1 3 1 Z " fill="#65799E" transform="translate(775,831)"/>
<path d="M0 0 C3 1 3 1 3 1 Z " fill="#64789E" transform="translate(724,831)"/>
<path d="M0 0 C3 1 3 1 3 1 Z " fill="#99ACC4" transform="translate(636,344)"/>
<path d="M0 0 C3 1 3 1 3 1 Z " fill="#90A1BD" transform="translate(406,344)"/>
<path d="M0 0 C3 1 3 1 3 1 Z " fill="#9AABC3" transform="translate(325,344)"/>
<path d="" fill="#D2E0EB" transform="translate(0,0)"/>
<path d="M0 0 C3 1 3 1 3 1 Z " fill="#CCDAE4" transform="translate(471,160)"/>
<path d="M0 0 C2 1 2 1 2 1 Z " fill="#64779E" transform="translate(785,831)"/>
<path d="M0 0 C2 1 2 1 2 1 Z " fill="#64799E" transform="translate(781,831)"/>
<path d="M0 0 C2 1 2 1 2 1 Z " fill="#66779F" transform="translate(756,831)"/>
<path d="M0 0 C2 1 2 1 2 1 Z " fill="#68789D" transform="translate(687,831)"/>
<path d="M0 0 C2 1 2 1 2 1 Z " fill="#66799D" transform="translate(680,831)"/>
<path d="M0 0 C2 1 2 1 2 1 Z " fill="#65789F" transform="translate(672,831)"/>
<path d="M0 0 C2 1 2 1 2 1 Z " fill="#65789F" transform="translate(640,831)"/>
<path d="M0 0 C2 1 2 1 2 1 Z " fill="#65789F" transform="translate(591,831)"/>
<path d="M0 0 C2 1 2 1 2 1 Z " fill="#65779E" transform="translate(580,831)"/>
<path d="M0 0 C2 1 2 1 2 1 Z " fill="#63789D" transform="translate(576,831)"/>
<path d="M0 0 C2 1 2 1 2 1 Z " fill="#65769F" transform="translate(524,831)"/>
<path d="M0 0 C2 1 2 1 2 1 Z " fill="#63769C" transform="translate(520,831)"/>
<path d="M0 0 C2 1 2 1 2 1 Z " fill="#62799F" transform="translate(468,831)"/>
<path d="M0 0 C2 1 2 1 2 1 Z " fill="#65779E" transform="translate(454,831)"/>
<path d="M0 0 C2 1 2 1 2 1 Z " fill="#63779D" transform="translate(416,831)"/>
<path d="M0 0 C2 1 2 1 2 1 Z " fill="#667A9F" transform="translate(407,831)"/>
<path d="M0 0 C2 1 2 1 2 1 Z " fill="#6578A1" transform="translate(388,831)"/>
<path d="M0 0 C2 1 2 1 2 1 Z " fill="#64779C" transform="translate(372,831)"/>
<path d="" fill="#62749A" transform="translate(0,0)"/>
<path d="M0 0 C2 1 2 1 2 1 Z " fill="#627498" transform="translate(152,776)"/>
<path d="" fill="#66789C" transform="translate(0,0)"/>
<path d="" fill="#6779A0" transform="translate(0,0)"/>
<path d="" fill="#69789D" transform="translate(0,0)"/>
<path d="" fill="#67779B" transform="translate(0,0)"/>
<path d="" fill="#66799D" transform="translate(0,0)"/>
<path d="" fill="#687AA0" transform="translate(0,0)"/>
<path d="M0 0 C2 1 2 1 2 1 Z " fill="#6F80A0" transform="translate(257,348)"/>
<path d="M0 0 C2 1 2 1 2 1 Z " fill="#8799B6" transform="translate(584,344)"/>
<path d="M0 0 C2 1 2 1 2 1 Z " fill="#7E8FAE" transform="translate(513,344)"/>
<path d="M0 0 C2 1 2 1 2 1 Z " fill="#8596B3" transform="translate(441,344)"/>
<path d="M0 0 C2 1 2 1 2 1 Z " fill="#8896B5" transform="translate(429,344)"/>
<path d="M0 0 C2 1 2 1 2 1 Z " fill="#8A9BB8" transform="translate(416,344)"/>
<path d="M0 0 C2 1 2 1 2 1 Z " fill="#95A8C1" transform="translate(320,344)"/>
<path d="M0 0 C2 1 2 1 2 1 Z " fill="#7688AA" transform="translate(280,344)"/>
<path d="" fill="#CEDDE9" transform="translate(0,0)"/>
<path d="" fill="#D2E0ED" transform="translate(0,0)"/>
<path d="" fill="#CCD8E4" transform="translate(0,0)"/>
<path d="M0 0 C2 1 2 1 2 1 Z " fill="#D0DEEB" transform="translate(592,231)"/>
<path d="M0 0 C2 1 2 1 2 1 Z " fill="#D2DFEC" transform="translate(585,227)"/>
<path d="M0 0 C2 1 2 1 2 1 Z " fill="#CBD8E1" transform="translate(662,218)"/>
<path d="M0 0 C2 1 2 1 2 1 Z " fill="#D0DEEB" transform="translate(480,215)"/>
<path d="M0 0 C2 1 2 1 2 1 Z " fill="#D2E1ED" transform="translate(546,214)"/>
<path d="M0 0 C2 1 2 1 2 1 Z " fill="#CFDBE4" transform="translate(489,157)"/>
<path d="" fill="#65769D" transform="translate(0,0)"/>
<path d="" fill="#66789F" transform="translate(0,0)"/>
<path d="" fill="#65789C" transform="translate(0,0)"/>
<path d="" fill="#6578A0" transform="translate(0,0)"/>
<path d="" fill="#6479A0" transform="translate(0,0)"/>
<path d="" fill="#66799F" transform="translate(0,0)"/>
<path d="" fill="#64789E" transform="translate(0,0)"/>
<path d="" fill="#64789C" transform="translate(0,0)"/>
<path d="" fill="#66789E" transform="translate(0,0)"/>
<path d="" fill="#657B9F" transform="translate(0,0)"/>
<path d="" fill="#6478A1" transform="translate(0,0)"/>
<path d="" fill="#6277A0" transform="translate(0,0)"/>
<path d="" fill="#66789F" transform="translate(0,0)"/>
<path d="" fill="#6578A1" transform="translate(0,0)"/>
<path d="" fill="#64789E" transform="translate(0,0)"/>
<path d="" fill="#64779D" transform="translate(0,0)"/>
<path d="" fill="#68799E" transform="translate(0,0)"/>
<path d="" fill="#64789D" transform="translate(0,0)"/>
<path d="" fill="#64789D" transform="translate(0,0)"/>
<path d="" fill="#64779D" transform="translate(0,0)"/>
<path d="" fill="#64779E" transform="translate(0,0)"/>
<path d="" fill="#66789E" transform="translate(0,0)"/>
<path d="" fill="#66799E" transform="translate(0,0)"/>
<path d="" fill="#64779F" transform="translate(0,0)"/>
<path d="" fill="#64789E" transform="translate(0,0)"/>
<path d="" fill="#6579A0" transform="translate(0,0)"/>
<path d="" fill="#6579A0" transform="translate(0,0)"/>
<path d="" fill="#66789E" transform="translate(0,0)"/>
<path d="" fill="#65789E" transform="translate(0,0)"/>
<path d="" fill="#65789F" transform="translate(0,0)"/>
<path d="" fill="#64779E" transform="translate(0,0)"/>
<path d="" fill="#62779D" transform="translate(0,0)"/>
<path d="" fill="#677AA2" transform="translate(0,0)"/>
<path d="" fill="#65779E" transform="translate(0,0)"/>
<path d="" fill="#64779D" transform="translate(0,0)"/>
<path d="" fill="#657AA0" transform="translate(0,0)"/>
<path d="" fill="#68789F" transform="translate(0,0)"/>
<path d="" fill="#65769F" transform="translate(0,0)"/>
<path d="" fill="#66769F" transform="translate(0,0)"/>
<path d="" fill="#67799E" transform="translate(0,0)"/>
<path d="" fill="#66779F" transform="translate(0,0)"/>
<path d="" fill="#677A9F" transform="translate(0,0)"/>
<path d="" fill="#64799D" transform="translate(0,0)"/>
<path d="" fill="#667B9E" transform="translate(0,0)"/>
<path d="" fill="#65789F" transform="translate(0,0)"/>
<path d="" fill="#66789F" transform="translate(0,0)"/>
<path d="" fill="#677CA0" transform="translate(0,0)"/>
<path d="" fill="#65779F" transform="translate(0,0)"/>
<path d="" fill="#667A9F" transform="translate(0,0)"/>
<path d="" fill="#65799F" transform="translate(0,0)"/>
<path d="" fill="#6579A2" transform="translate(0,0)"/>
<path d="" fill="#6479A0" transform="translate(0,0)"/>
<path d="" fill="#6678A0" transform="translate(0,0)"/>
<path d="" fill="#66779E" transform="translate(0,0)"/>
<path d="" fill="#64779D" transform="translate(0,0)"/>
<path d="" fill="#65789B" transform="translate(0,0)"/>
<path d="" fill="#64779C" transform="translate(0,0)"/>
<path d="" fill="#64779C" transform="translate(0,0)"/>
<path d="" fill="#66799E" transform="translate(0,0)"/>
<path d="" fill="#67789F" transform="translate(0,0)"/>
<path d="" fill="#63789E" transform="translate(0,0)"/>
<path d="" fill="#6379A0" transform="translate(0,0)"/>
<path d="" fill="#65799C" transform="translate(0,0)"/>
<path d="" fill="#65799E" transform="translate(0,0)"/>
<path d="" fill="#63769B" transform="translate(0,0)"/>
<path d="" fill="#647A9E" transform="translate(0,0)"/>
<path d="" fill="#65789F" transform="translate(0,0)"/>
<path d="" fill="#667A9F" transform="translate(0,0)"/>
<path d="" fill="#667B9E" transform="translate(0,0)"/>
<path d="" fill="#66789F" transform="translate(0,0)"/>
<path d="" fill="#65789F" transform="translate(0,0)"/>
<path d="" fill="#657AA0" transform="translate(0,0)"/>
<path d="" fill="#66799E" transform="translate(0,0)"/>
<path d="" fill="#67789E" transform="translate(0,0)"/>
<path d="" fill="#66789C" transform="translate(0,0)"/>
<path d="" fill="#64769F" transform="translate(0,0)"/>
<path d="" fill="#667699" transform="translate(0,0)"/>
<path d="" fill="#697C9E" transform="translate(0,0)"/>
<path d="" fill="#647599" transform="translate(0,0)"/>
<path d="" fill="#627399" transform="translate(0,0)"/>
<path d="" fill="#657598" transform="translate(0,0)"/>
<path d="" fill="#637699" transform="translate(0,0)"/>
<path d="" fill="#617297" transform="translate(0,0)"/>
<path d="" fill="#647599" transform="translate(0,0)"/>
<path d="" fill="#60749A" transform="translate(0,0)"/>
<path d="" fill="#637498" transform="translate(0,0)"/>
<path d="" fill="#637397" transform="translate(0,0)"/>
<path d="" fill="#617498" transform="translate(0,0)"/>
<path d="" fill="#617396" transform="translate(0,0)"/>
<path d="" fill="#637497" transform="translate(0,0)"/>
<path d="" fill="#627397" transform="translate(0,0)"/>
<path d="" fill="#647699" transform="translate(0,0)"/>
<path d="" fill="#65759A" transform="translate(0,0)"/>
<path d="" fill="#617295" transform="translate(0,0)"/>
<path d="" fill="#647699" transform="translate(0,0)"/>
<path d="" fill="#627699" transform="translate(0,0)"/>
<path d="" fill="#67779B" transform="translate(0,0)"/>
<path d="" fill="#66789C" transform="translate(0,0)"/>
<path d="" fill="#64779B" transform="translate(0,0)"/>
<path d="" fill="#65789C" transform="translate(0,0)"/>
<path d="" fill="#62779E" transform="translate(0,0)"/>
<path d="" fill="#67779A" transform="translate(0,0)"/>
<path d="" fill="#69799D" transform="translate(0,0)"/>
<path d="" fill="#687CA0" transform="translate(0,0)"/>
<path d="" fill="#67789E" transform="translate(0,0)"/>
<path d="" fill="#6A7B9F" transform="translate(0,0)"/>
<path d="" fill="#66789C" transform="translate(0,0)"/>
<path d="" fill="#68789C" transform="translate(0,0)"/>
<path d="" fill="#65769C" transform="translate(0,0)"/>
<path d="" fill="#66799E" transform="translate(0,0)"/>
<path d="" fill="#67799F" transform="translate(0,0)"/>
<path d="" fill="#66789E" transform="translate(0,0)"/>
<path d="" fill="#69799D" transform="translate(0,0)"/>
<path d="" fill="#65779C" transform="translate(0,0)"/>
<path d="" fill="#677DA3" transform="translate(0,0)"/>
<path d="" fill="#6879A1" transform="translate(0,0)"/>
<path d="" fill="#66799E" transform="translate(0,0)"/>
<path d="" fill="#66789C" transform="translate(0,0)"/>
<path d="" fill="#64759B" transform="translate(0,0)"/>
<path d="" fill="#66799C" transform="translate(0,0)"/>
<path d="" fill="#66789C" transform="translate(0,0)"/>
<path d="" fill="#68779F" transform="translate(0,0)"/>
<path d="" fill="#6879A1" transform="translate(0,0)"/>
<path d="" fill="#68789E" transform="translate(0,0)"/>
<path d="" fill="#697CA1" transform="translate(0,0)"/>
<path d="" fill="#66789E" transform="translate(0,0)"/>
<path d="" fill="#657A9E" transform="translate(0,0)"/>
<path d="" fill="#67779D" transform="translate(0,0)"/>
<path d="" fill="#6E81A9" transform="translate(0,0)"/>
<path d="" fill="#6B81A6" transform="translate(0,0)"/>
<path d="" fill="#6A80A7" transform="translate(0,0)"/>
<path d="" fill="#6C7FA7" transform="translate(0,0)"/>
<path d="" fill="#66779C" transform="translate(0,0)"/>
<path d="" fill="#657597" transform="translate(0,0)"/>
<path d="" fill="#6B80A5" transform="translate(0,0)"/>
<path d="" fill="#6C80A5" transform="translate(0,0)"/>
<path d="" fill="#6C80A7" transform="translate(0,0)"/>
<path d="" fill="#67799E" transform="translate(0,0)"/>
<path d="" fill="#63789C" transform="translate(0,0)"/>
<path d="" fill="#66799D" transform="translate(0,0)"/>
<path d="" fill="#687DA4" transform="translate(0,0)"/>
<path d="" fill="#687DA3" transform="translate(0,0)"/>
<path d="" fill="#67779B" transform="translate(0,0)"/>
<path d="" fill="#697EA4" transform="translate(0,0)"/>
<path d="" fill="#677CA4" transform="translate(0,0)"/>
<path d="" fill="#6B7EA5" transform="translate(0,0)"/>
<path d="" fill="#66799B" transform="translate(0,0)"/>
<path d="" fill="#677999" transform="translate(0,0)"/>
<path d="" fill="#65779A" transform="translate(0,0)"/>
<path d="" fill="#68799E" transform="translate(0,0)"/>
<path d="" fill="#677B9C" transform="translate(0,0)"/>
<path d="" fill="#647697" transform="translate(0,0)"/>
<path d="" fill="#677B9C" transform="translate(0,0)"/>
<path d="" fill="#66779A" transform="translate(0,0)"/>
<path d="" fill="#677A9B" transform="translate(0,0)"/>
<path d="" fill="#6B7FA1" transform="translate(0,0)"/>
<path d="" fill="#6A7C9B" transform="translate(0,0)"/>
<path d="" fill="#69799C" transform="translate(0,0)"/>
<path d="" fill="#6C7C9D" transform="translate(0,0)"/>
<path d="" fill="#6A7FA1" transform="translate(0,0)"/>
<path d="" fill="#6C7EA1" transform="translate(0,0)"/>
<path d="" fill="#7080A3" transform="translate(0,0)"/>
<path d="" fill="#7082A6" transform="translate(0,0)"/>
<path d="" fill="#7283A4" transform="translate(0,0)"/>
<path d="" fill="#7584A5" transform="translate(0,0)"/>
<path d="" fill="#7686A8" transform="translate(0,0)"/>
<path d="" fill="#778BA9" transform="translate(0,0)"/>
<path d="" fill="#7A8BAA" transform="translate(0,0)"/>
<path d="" fill="#7C8EAF" transform="translate(0,0)"/>
<path d="" fill="#8A9AB6" transform="translate(0,0)"/>
<path d="" fill="#9CAAC4" transform="translate(0,0)"/>
<path d="" fill="#A1AFC6" transform="translate(0,0)"/>
<path d="" fill="#A6B4C7" transform="translate(0,0)"/>
<path d="" fill="#98A9C1" transform="translate(0,0)"/>
<path d="" fill="#91A1BC" transform="translate(0,0)"/>
<path d="" fill="#8B9CBA" transform="translate(0,0)"/>
<path d="" fill="#8B9CB6" transform="translate(0,0)"/>
<path d="" fill="#8998B5" transform="translate(0,0)"/>
<path d="" fill="#8394B1" transform="translate(0,0)"/>
<path d="" fill="#8395B0" transform="translate(0,0)"/>
<path d="" fill="#8091AE" transform="translate(0,0)"/>
<path d="" fill="#7F91AE" transform="translate(0,0)"/>
<path d="" fill="#818FAE" transform="translate(0,0)"/>
<path d="" fill="#7F92AF" transform="translate(0,0)"/>
<path d="" fill="#7F91B1" transform="translate(0,0)"/>
<path d="" fill="#8194B1" transform="translate(0,0)"/>
<path d="" fill="#8191B1" transform="translate(0,0)"/>
<path d="" fill="#8497B3" transform="translate(0,0)"/>
<path d="" fill="#91A2BB" transform="translate(0,0)"/>
<path d="" fill="#9EAFC6" transform="translate(0,0)"/>
<path d="" fill="#97A7C1" transform="translate(0,0)"/>
<path d="" fill="#8D9FBB" transform="translate(0,0)"/>
<path d="" fill="#8B9DB8" transform="translate(0,0)"/>
<path d="" fill="#8195B3" transform="translate(0,0)"/>
<path d="" fill="#8090B0" transform="translate(0,0)"/>
<path d="" fill="#7C8EAF" transform="translate(0,0)"/>
<path d="" fill="#7383A4" transform="translate(0,0)"/>
<path d="" fill="#BCCAD7" transform="translate(0,0)"/>
<path d="" fill="#C2CFDF" transform="translate(0,0)"/>
<path d="" fill="#CAD7E5" transform="translate(0,0)"/>
<path d="" fill="#CCD9E6" transform="translate(0,0)"/>
<path d="" fill="#CBDBE9" transform="translate(0,0)"/>
<path d="" fill="#C6D5E2" transform="translate(0,0)"/>
<path d="" fill="#CBDAE8" transform="translate(0,0)"/>
<path d="" fill="#C7D4E0" transform="translate(0,0)"/>
<path d="" fill="#CDDDE8" transform="translate(0,0)"/>
<path d="" fill="#C7D6E4" transform="translate(0,0)"/>
<path d="" fill="#CDDBE9" transform="translate(0,0)"/>
<path d="" fill="#CCDCE8" transform="translate(0,0)"/>
<path d="" fill="#CDDCE7" transform="translate(0,0)"/>
<path d="" fill="#CAD6E4" transform="translate(0,0)"/>
<path d="" fill="#CEDDE9" transform="translate(0,0)"/>
<path d="" fill="#CFDEE9" transform="translate(0,0)"/>
<path d="" fill="#CBD6E4" transform="translate(0,0)"/>
<path d="" fill="#D1DDE9" transform="translate(0,0)"/>
<path d="" fill="#CBD8E1" transform="translate(0,0)"/>
<path d="" fill="#D1DFEC" transform="translate(0,0)"/>
<path d="" fill="#CBD8E5" transform="translate(0,0)"/>
<path d="" fill="#CDD8E4" transform="translate(0,0)"/>
<path d="" fill="#C7D3DF" transform="translate(0,0)"/>
<path d="" fill="#C7D7E2" transform="translate(0,0)"/>
<path d="" fill="#CAD6E4" transform="translate(0,0)"/>
<path d="" fill="#D1E1EC" transform="translate(0,0)"/>
<path d="" fill="#D1E1EB" transform="translate(0,0)"/>
<path d="" fill="#D0E0EA" transform="translate(0,0)"/>
<path d="" fill="#C9D7E3" transform="translate(0,0)"/>
<path d="" fill="#CFDDE8" transform="translate(0,0)"/>
<path d="" fill="#D1E1EC" transform="translate(0,0)"/>
<path d="" fill="#D0DEEA" transform="translate(0,0)"/>
<path d="" fill="#CDD9E4" transform="translate(0,0)"/>
<path d="" fill="#CDDEE9" transform="translate(0,0)"/>
<path d="" fill="#C8D6E4" transform="translate(0,0)"/>
<path d="" fill="#D1DEEC" transform="translate(0,0)"/>
<path d="" fill="#CAD9E1" transform="translate(0,0)"/>
<path d="" fill="#D2E0E9" transform="translate(0,0)"/>
<path d="" fill="#D2E1EB" transform="translate(0,0)"/>
<path d="" fill="#CCD9E1" transform="translate(0,0)"/>
<path d="" fill="#D3E1ED" transform="translate(0,0)"/>
<path d="" fill="#C5D3DF" transform="translate(0,0)"/>
<path d="" fill="#CBD6E1" transform="translate(0,0)"/>
<path d="" fill="#D2DEEC" transform="translate(0,0)"/>
<path d="" fill="#D0E2EB" transform="translate(0,0)"/>
<path d="" fill="#D4E2EE" transform="translate(0,0)"/>
<path d="" fill="#D3E0EC" transform="translate(0,0)"/>
<path d="" fill="#D1E1EB" transform="translate(0,0)"/>
<path d="" fill="#D2DFEC" transform="translate(0,0)"/>
<path d="" fill="#D3DFEC" transform="translate(0,0)"/>
<path d="" fill="#D0DEED" transform="translate(0,0)"/>
<path d="" fill="#D2E1EC" transform="translate(0,0)"/>
<path d="" fill="#D1E0EA" transform="translate(0,0)"/>
<path d="" fill="#D2DFEC" transform="translate(0,0)"/>
<path d="" fill="#CAD7E2" transform="translate(0,0)"/>
<path d="" fill="#CCD7E1" transform="translate(0,0)"/>
<path d="" fill="#C9D7E0" transform="translate(0,0)"/>
<path d="" fill="#CEDBE5" transform="translate(0,0)"/>
<path d="" fill="#CCDBE6" transform="translate(0,0)"/>
<path d="" fill="#CAD7E3" transform="translate(0,0)"/>
<path d="" fill="#CCD9E3" transform="translate(0,0)"/>
<path d="" fill="#CCDCE4" transform="translate(0,0)"/>
<path d="" fill="#CDD9E5" transform="translate(0,0)"/>
<path d="" fill="#CCD9E7" transform="translate(0,0)"/>
<path d="" fill="#CEDBE4" transform="translate(0,0)"/>
<path d="" fill="#D0DCE4" transform="translate(0,0)"/>
<path d="" fill="#D0DCE3" transform="translate(0,0)"/>
<path d="" fill="#CEDDE5" transform="translate(0,0)"/>
<path d="" fill="#CCD7E4" transform="translate(0,0)"/>
</svg>
