<?xml version="1.0" encoding="UTF-8"?>
<svg version="1.1" xmlns="http://www.w3.org/2000/svg" width="500" height="500">
<path d="M0 0 C1.23240417 -0.0071553 2.46480835 -0.01431061 3.73455811 -0.02168274 C5.10780309 -0.02452312 6.48104835 -0.02723484 7.85429382 -0.02983093 C9.29473536 -0.03609464 10.73517527 -0.04274136 12.1756134 -0.04974365 C16.09512155 -0.06716158 20.01461749 -0.07770751 23.93415475 -0.08594918 C26.38219366 -0.09109754 28.83022877 -0.09717333 31.278265 -0.10346031 C38.93544113 -0.12251439 46.5926076 -0.13674521 54.24980289 -0.14507228 C63.09281498 -0.15484731 71.93557692 -0.18117271 80.77850085 -0.22157317 C87.61083672 -0.25171824 94.44310082 -0.2665396 101.27550191 -0.26985329 C105.35748998 -0.27220558 109.43921089 -0.28118889 113.5211277 -0.30631447 C117.36171035 -0.32957239 121.2018495 -0.33383789 125.04248428 -0.32355309 C126.45138841 -0.32305706 127.8603142 -0.3293974 129.26915169 -0.34310913 C131.19400185 -0.36079347 133.11904406 -0.35134783 135.04394531 -0.34057617 C136.65917823 -0.3441587 136.65917823 -0.3441587 138.30704212 -0.34781361 C141.95864161 0.27429759 143.60282237 1.55907313 146.21244812 4.14717102 C147.29622436 6.76328438 148.08697737 9.09027208 148.79057312 11.80342102 C149.00282028 12.5640686 149.21506744 13.32471619 149.43374634 14.1084137 C150.12809611 16.6167568 150.79555787 19.13140031 151.46244812 21.64717102 C151.94869157 23.42905873 152.43609594 25.21063002 152.92460632 26.99189758 C156.09121321 38.61486658 159.05706279 50.28736305 161.91038513 61.99082947 C164.51715781 72.68158287 167.31763377 83.31127181 170.22416687 93.92451477 C170.49130399 94.90134027 170.49130399 94.90134027 170.76383781 95.89789963 C172.38819412 101.8371101 174.01396843 107.77590813 175.66297913 113.70832825 C186.32173865 152.0849233 186.32173865 152.0849233 184.01445007 158.45429993 C179.52108629 165.16908146 169.57230121 166.27866621 162.14994812 168.08467102 C159.78837102 168.67352111 157.4277772 169.26632187 155.06791687 169.86201477 C154.41127045 170.02777008 153.75462402 170.19352539 153.07807922 170.36430359 C146.69706575 171.99171256 140.35619608 173.75705265 134.01322937 175.52607727 C131.84475175 176.12728941 129.67621289 176.72828073 127.50761414 177.32905579 C124.24176174 178.23393744 120.97737885 179.14294523 117.71656799 180.06584167 C114.62993398 180.93859 111.53901425 181.79435532 108.44682312 182.64717102 C107.51860245 182.91449539 106.59038177 183.18181976 105.6340332 183.45724487 C100.39538136 184.88337311 96.51173401 185.5165234 91.21244812 184.14717102 C86.54194281 180.1637453 85.46881324 174.29396979 83.89994812 168.58467102 C83.60434998 167.54270569 83.30875183 166.50074036 83.00419617 165.42720032 C80.36935777 156.01288862 77.98993361 146.53272536 75.69755554 137.02973938 C74.031238 130.16993983 72.12920651 123.44041162 69.97099304 116.71821594 C69.21244812 114.14717102 69.21244812 114.14717102 69.21244812 112.14717102 C67.89244812 112.14717102 66.57244812 112.14717102 65.21244812 112.14717102 C65.04229187 112.85099915 64.87213562 113.55482727 64.69682312 114.27998352 C63.32893939 119.85338211 61.87751079 125.38638239 60.27494812 130.89717102 C58.87607488 135.7301203 57.59259657 140.57185108 56.39994812 145.45967102 C55.68059014 148.35802305 54.94866035 151.25305649 54.21244812 154.14717102 C53.95560242 155.16005188 53.69875671 156.17293274 53.43412781 157.21650696 C52.56706042 160.59460149 51.67355335 163.96484083 50.77494812 167.33467102 C50.49868591 168.42239807 50.22242371 169.51012512 49.93778992 170.6308136 C47.20382842 180.71421873 47.20382842 180.71421873 42.21244812 184.14717102 C37.38172607 185.40977497 33.98240567 184.86818016 29.20414734 183.56416321 C28.53004318 183.38381027 27.85593903 183.20345734 27.16140747 183.01763916 C24.9433783 182.4212011 22.73045272 181.80771702 20.51713562 181.19404602 C18.9629178 180.77272276 17.4083975 180.35251389 15.85359192 179.93336487 C11.7617749 178.8272441 7.67402517 177.70677696 3.58702087 176.58302307 C-0.53564697 175.45181367 -4.66163334 174.33286135 -8.78755188 173.21357727 C-13.44519161 171.94997934 -18.10254399 170.68549949 -22.75682068 169.40956116 C-23.46675611 169.21542255 -24.17669155 169.02128395 -24.90814018 168.82126236 C-26.28477733 168.44436239 -27.66097894 168.06586733 -29.0366993 167.68563461 C-34.13721971 166.28717307 -39.26990008 165.1031447 -44.4493866 164.03639221 C-47.32431105 162.94303762 -48.24168537 161.76935401 -49.78755188 159.14717102 C-51.17882791 154.26264783 -50.42188106 150.2973648 -49.15473938 145.49873352 C-48.96686356 144.75039749 -48.77898773 144.00206146 -48.5854187 143.23104858 C-47.95645749 140.74153145 -47.30986823 138.25697352 -46.66255188 135.77217102 C-46.21018332 134.0012536 -45.75845621 132.23017221 -45.30732727 130.4589386 C-41.21933725 114.49589372 -36.89186758 98.59571951 -32.55024719 82.70014954 C-29.43366406 71.28294395 -26.38428503 59.85343887 -23.46589661 48.38392639 C-20.69046501 37.47843335 -17.90615068 26.57445749 -14.97505188 15.70967102 C-14.57600647 14.17161804 -14.57600647 14.17161804 -14.16889954 12.60249329 C-11.8329657 4.09302003 -11.8329657 4.09302003 -7.78755188 1.14717102 C-5.09739471 -0.19790757 -3.01342558 0.01197167 0 0 Z " fill="#40A0D2" transform="translate(182.7875518798828,157.8528289794922)"/>
<path d="M0 0 C2.64 0 5.28 0 8 0 C8.625 2.375 8.625 2.375 9 5 C8.34 5.66 7.68 6.32 7 7 C6.67 5.35 6.34 3.7 6 2 C4.68 2 3.36 2 2 2 C1.01 5.96 0.02 9.92 -1 14 C-1.66 13.67 -2.32 13.34 -3 13 C-3 11.02 -3 9.04 -3 7 C-2.34 7 -1.68 7 -1 7 C-0.67 4.69 -0.34 2.38 0 0 Z " fill="#5FAACE" transform="translate(246,268)"/>
<path d="M0 0 C0.66 0.33 1.32 0.66 2 1 C2.63912692 3.86434404 3.16944544 6.66879881 3.625 9.5625 C3.7590625 10.36880859 3.893125 11.17511719 4.03125 12.00585938 C4.36207299 14.0026124 4.68205038 16.0011567 5 18 C4.34 18.33 3.68 18.66 3 19 C2.731875 18.21625 2.46375 17.4325 2.1875 16.625 C1.15185568 13.71885077 1.15185568 13.71885077 -2 12 C-1.34 8.04 -0.68 4.08 0 0 Z " fill="#5BA8CC" transform="translate(363,295)"/>
<path d="M0 0 C0.66 0 1.32 0 2 0 C1.875 1.8125 1.875 1.8125 1 4 C-1.84024378 6.1848029 -3.86839153 7.08732097 -7.48046875 6.80859375 C-11.65062447 6.02630457 -15.25633849 5.02709782 -19 3 C-15.23331402 1.6194913 -12.55210827 2.40431841 -8.75 3.4375 C-7.13351563 3.86869141 -7.13351563 3.86869141 -5.484375 4.30859375 C-4.25460938 4.65083984 -4.25460938 4.65083984 -3 5 C-3.33 4.01 -3.66 3.02 -4 2 C-2.68 2 -1.36 2 0 2 C0 1.34 0 0.68 0 0 Z " fill="#6EAFD2" transform="translate(227,336)"/>
<path d="M0 0 C1.68900014 3.10629156 2.70626667 6.15205051 3.625 9.5625 C3.88539063 10.51253906 4.14578125 11.46257812 4.4140625 12.44140625 C5 15 5 15 5 18 C4.34 18 3.68 18 3 18 C3 17.01 3 16.02 3 15 C2.01 15.33 1.02 15.66 0 16 C0 15.01 0 14.02 0 13 C-0.27399078 10.16314157 -0.57408548 7.32979792 -0.87890625 4.49609375 C-1 2 -1 2 0 0 Z " fill="#62ACD2" transform="translate(330,168)"/>
<path d="M0 0 C1.9375 0.6875 1.9375 0.6875 4 2 C4.75 4.625 4.75 4.625 5 7 C3.02 7.33 1.04 7.66 -1 8 C-2 6 -2 6 -1.0625 2.875 C-0.5365625 1.451875 -0.5365625 1.451875 0 0 Z " fill="#54A5D1" transform="translate(324,159)"/>
<path d="M0 0 C0.66 1.32 1.32 2.64 2 4 C0.25364835 4.53293835 -1.49727652 5.05090663 -3.25 5.5625 C-4.22453125 5.85253906 -5.1990625 6.14257812 -6.203125 6.44140625 C-8.96243932 6.99249836 -10.3912824 6.93789609 -13 6 C-13 5.67 -13 5.34 -13 5 C-11.35 5 -9.7 5 -8 5 C-8 4.34 -8 3.68 -8 3 C-5.36 3 -2.72 3 0 3 C0 2.01 0 1.02 0 0 Z " fill="#68AED4" transform="translate(320,328)"/>
<path d="M0 0 C0 0.33 0 0.66 0 1 C-5.94 2.32 -11.88 3.64 -18 5 C-18.33 4.34 -18.66 3.68 -19 3 C-12.49577707 0.99134292 -6.8218683 -0.38614349 0 0 Z " fill="#70B3D3" transform="translate(356,322)"/>
<path d="M0 0 C3.3 0 6.6 0 10 0 C10 0.66 10 1.32 10 2 C11.32 2 12.64 2 14 2 C14 2.66 14 3.32 14 4 C11.85270859 3.71926927 9.70716807 3.42511501 7.5625 3.125 C6.36753906 2.96257812 5.17257813 2.80015625 3.94140625 2.6328125 C2.97074219 2.42398437 2.00007812 2.21515625 1 2 C0.67 1.34 0.34 0.68 0 0 Z " fill="#66ADD0" transform="translate(141,321)"/>
<path d="M0 0 C0.66 0 1.32 0 2 0 C1.49202991 4.3177458 0.80317221 8.03302114 -1 12 C-1.66 12 -2.32 12 -3 12 C-2.69230293 10.18667846 -2.37870936 8.37435655 -2.0625 6.5625 C-1.80146484 5.04849609 -1.80146484 5.04849609 -1.53515625 3.50390625 C-1 1 -1 1 0 0 Z " fill="#5DA8CF" transform="translate(149,248)"/>
<path d="M0 0 C0.66 0.66 1.32 1.32 2 2 C1.75 3.75 1.75 3.75 1 6 C0.649375 7.0725 0.29875 8.145 -0.0625 9.25 C-0.371875 10.1575 -0.68125 11.065 -1 12 C-1.66 12 -2.32 12 -3 12 C-2.69230293 10.18667846 -2.37870936 8.37435655 -2.0625 6.5625 C-1.80146484 5.04849609 -1.80146484 5.04849609 -1.53515625 3.50390625 C-1 1 -1 1 0 0 Z " fill="#5EA7CF" transform="translate(161,202)"/>
<path d="M0 0 C1.32 0.66 2.64 1.32 4 2 C3.09456151 4.71631546 2.07525194 7.34771188 1 10 C-1.56687367 6.1496895 -0.83288724 4.41430237 0 0 Z " fill="#54A8D4" transform="translate(170,166)"/>
<path d="M0 0 C2.12046792 3.53411321 2.53199289 6.94393835 3 11 C2.34 11 1.68 11 1 11 C-0.98362069 8.08291076 -0.9876191 6.87619096 -0.625 3.25 C-0.41875 2.1775 -0.2125 1.105 0 0 Z " fill="#65ACD0" transform="translate(350,244)"/>
<path d="M0 0 C1.60156595 4.00391487 0.4087561 7.07031192 -1 11 C-1.99 11.495 -1.99 11.495 -3 12 C-2.49202991 7.6822542 -1.80317221 3.96697886 0 0 Z " fill="#64A9D1" transform="translate(167,180)"/>
<path d="M0 0 C0.66 0 1.32 0 2 0 C1.34 3.96 0.68 7.92 0 12 C-0.66 11.34 -1.32 10.68 -2 10 C-1.7578125 7.6171875 -1.7578125 7.6171875 -1.125 4.875 C-0.92132813 3.96492188 -0.71765625 3.05484375 -0.5078125 2.1171875 C-0.34023437 1.41851562 -0.17265625 0.71984375 0 0 Z " fill="#69B2D5" transform="translate(240,290)"/>
<path d="M0 0 C0.66 0 1.32 0 2 0 C1.75 1.875 1.75 1.875 1 4 C-1.0625 5.25 -1.0625 5.25 -3 6 C-3.33 4.68 -3.66 3.36 -4 2 C-2.68 2 -1.36 2 0 2 C0 1.34 0 0.68 0 0 Z " fill="#62A8CC" transform="translate(227,336)"/>
<path d="M0 0 C1.65 0 3.3 0 5 0 C5.625 2.375 5.625 2.375 6 5 C5.34 5.66 4.68 6.32 4 7 C3.67 5.35 3.34 3.7 3 2 C2.01 2 1.02 2 0 2 C0 1.34 0 0.68 0 0 Z " fill="#70B4D4" transform="translate(249,268)"/>
<path d="M0 0 C1.5625 1.25 1.5625 1.25 3 3 C2.6875 5.1875 2.6875 5.1875 2 7 C1.01 7 0.02 7 -1 7 C-0.67 4.69 -0.34 2.38 0 0 Z " fill="#61ACD4" transform="translate(138,286)"/>
</svg>
