<?xml version="1.0" encoding="UTF-8"?>
<svg version="1.1" xmlns="http://www.w3.org/2000/svg" width="500" height="500">
<path d="M0 0 C0.9635289 -0.00861557 1.9270578 -0.01723114 2.91978455 -0.02610779 C6.09011048 -0.04872413 9.25954934 -0.04203648 12.42993164 -0.03295898 C14.64278932 -0.03819658 16.85564476 -0.04447356 19.0684967 -0.05174255 C23.70104495 -0.06213889 28.33328587 -0.05759624 32.96582031 -0.04296875 C38.89193266 -0.02578513 44.81707505 -0.04927589 50.74307919 -0.08445835 C55.31143068 -0.10645656 59.87955098 -0.10498487 64.44793892 -0.09669304 C66.63234076 -0.0958748 68.81675979 -0.10271366 71.00111198 -0.11746407 C74.05993517 -0.13495355 77.11702657 -0.12032977 80.17578125 -0.09765625 C81.07109558 -0.10934845 81.96640991 -0.12104065 82.88885498 -0.13308716 C88.97202355 -0.04169871 93.55962481 1.37500574 98.15258789 5.53344727 C98.15258789 6.19344727 98.15258789 6.85344727 98.15258789 7.53344727 C98.81258789 7.53344727 99.47258789 7.53344727 100.15258789 7.53344727 C103.61314669 14.00352573 106.01804832 20.58289878 108.34008789 27.53344727 C111.74957954 37.58006357 115.33653795 47.53754019 119.14550781 57.43969727 C121.14132035 62.66763391 122.88364831 67.89269009 124.44360352 73.26586914 C125.44278023 76.4615831 126.80702389 79.46970155 128.15258789 82.53344727 C129.32916464 85.68231211 130.42935701 88.85653148 131.52758789 92.03344727 C131.8335791 92.91202393 132.13957031 93.79060059 132.45483398 94.69580078 C134.64449947 101.00384967 136.76306746 107.3320363 138.81665039 113.68579102 C139.94295507 117.03982212 141.22495626 120.32637714 142.50805664 123.62329102 C145.13621198 130.40930051 147.50525443 137.26705301 149.84008789 144.15844727 C153.66001958 155.35229313 157.6542706 166.46277929 161.84082031 177.52612305 C163.9443124 183.11720068 165.88481117 188.69516231 167.51635742 194.44311523 C168.72522907 198.41485702 170.54208433 202.1642382 172.23071289 205.95141602 C175.42749461 213.75201366 177.02591683 222.25666574 174.12915039 230.41625977 C173.80688477 231.11493164 173.48461914 231.81360352 173.15258789 232.53344727 C172.49258789 232.53344727 171.83258789 232.53344727 171.15258789 232.53344727 C170.49258789 233.85344727 169.83258789 235.17344727 169.15258789 236.53344727 C168.49258789 236.53344727 167.83258789 236.53344727 167.15258789 236.53344727 C167.15258789 237.19344727 167.15258789 237.85344727 167.15258789 238.53344727 C160.95584527 241.23877482 155.9757186 241.96478954 149.25367737 241.91439819 C147.80124654 241.92141815 147.80124654 241.92141815 146.31947368 241.92857993 C143.08995709 241.94050146 139.86086706 241.93108361 136.63134766 241.92163086 C134.30982212 241.92569784 131.98829851 241.93104043 129.66677856 241.93756104 C123.37134587 241.95122606 117.07606083 241.94593903 110.78062558 241.93642378 C104.85640799 241.92959304 98.93220855 241.93481033 93.00799047 241.93920536 C80.5583648 241.94775156 68.10880549 241.93793759 55.65919071 241.92180426 C44.98923192 241.90840491 34.31937108 241.91072748 23.64941406 241.92456055 C11.244537 241.94063543 -1.16028194 241.94692436 -13.56516796 241.93772376 C-20.12644588 241.93305111 -26.68765641 241.93241116 -33.24892998 241.94233322 C-39.41890411 241.95101191 -45.58869368 241.94496421 -51.75864792 241.92765045 C-54.02051423 241.9236903 -56.28239614 241.92481155 -58.54425621 241.93143845 C-61.63688511 241.93966257 -64.72892627 241.92932141 -67.82151794 241.91439819 C-68.71200016 241.92109036 -69.60248237 241.92778252 -70.5199489 241.93467748 C-76.44651573 241.87938569 -81.34394704 240.72239245 -86.84741211 238.53344727 C-86.84741211 237.87344727 -86.84741211 237.21344727 -86.84741211 236.53344727 C-88.16741211 235.87344727 -89.48741211 235.21344727 -90.84741211 234.53344727 C-90.84741211 233.87344727 -90.84741211 233.21344727 -90.84741211 232.53344727 C-91.50741211 232.53344727 -92.16741211 232.53344727 -92.84741211 232.53344727 C-96.79131545 223.6237385 -95.27809897 215.71155751 -91.90991211 206.90844727 C-90.92287902 204.38736925 -89.92700945 201.86990449 -88.92993164 199.3527832 C-86.92483869 194.13067825 -85.15237037 188.82729772 -83.34741211 183.53344727 C-80.41697081 174.99651272 -77.39752095 166.50312145 -74.23901367 158.0480957 C-71.99857217 152.02344558 -69.95397327 145.94964467 -67.98803711 139.83032227 C-66.77205853 136.31564445 -65.31199151 132.95079921 -63.84741211 129.53344727 C-63.3149405 127.87686893 -62.81084928 126.21064844 -62.34741211 124.53344727 C-61.37858315 121.02720914 -60.10479932 117.78802357 -58.64575195 114.45678711 C-57.20564906 110.98732822 -56.07355158 107.41558809 -54.90991211 103.84594727 C-54.64976318 103.05792725 -54.38961426 102.26990723 -54.12158203 101.45800781 C-52.96536959 97.95434457 -51.81936111 94.4474242 -50.67553711 90.93969727 C-50.34038086 89.91875977 -50.00522461 88.89782227 -49.65991211 87.84594727 C-49.23645508 86.54077148 -49.23645508 86.54077148 -48.80444336 85.20922852 C-48.09740132 83.2323967 -47.30361918 81.28610303 -46.46459961 79.36157227 C-44.41964528 74.6629478 -42.81466699 69.81757141 -41.15991211 64.97094727 C-38.08413286 56.03575472 -34.90511867 47.14488762 -31.64648438 38.27490234 C-29.69272422 32.93300656 -27.84483104 27.57103258 -26.09741211 22.15844727 C-24.40904054 16.99031327 -22.47007416 12.29309321 -19.84741211 7.53344727 C-19.18741211 7.53344727 -18.52741211 7.53344727 -17.84741211 7.53344727 C-17.51741211 6.54344727 -17.18741211 5.55344727 -16.84741211 4.53344727 C-11.24025693 0.43485335 -6.8201411 -0.04959936 0 0 Z " fill="#3F77C1" transform="translate(209.847412109375,202.466552734375)"/>
<path d="M0 0 C0.9590625 -0.01611328 1.918125 -0.03222656 2.90625 -0.04882812 C8.69074157 -0.05280099 12.98653244 0.31616978 18 3.3125 C20.4311126 6.46201418 21.5958712 9.73900593 22.8125 13.5 C27.66052069 27.07810306 36.08019658 36.88908052 48.76953125 43.8046875 C62.91088624 50.40512647 77.21278719 51.3207239 92 46.3125 C98.49846291 43.82813188 103.72271982 39.778625 109 35.3125 C109.62003906 34.81234375 110.24007812 34.3121875 110.87890625 33.796875 C117.79849655 27.66676816 121.70499445 18.37878043 124.625 9.75 C126.2357626 5.7230935 127.43909967 3.81270661 131 1.3125 C134.32675613 0.45024599 137.5746239 0.37914156 141 0.3125 C142.81564453 0.23708984 142.81564453 0.23708984 144.66796875 0.16015625 C153.19309922 -0.05361332 160.70824599 -0.1418386 167.5625 5.375 C170.34733343 11.06574657 169.50501241 17.36341664 167.64453125 23.28515625 C167.04926072 24.98723749 166.4383875 26.6839375 165.8125 28.375 C163.33845273 35.27284039 161.11336038 42.20723834 159.07197571 49.24424744 C156.46777109 58.19712944 153.69010181 67.09563959 150.91601562 75.99707031 C149.9991892 78.9401027 149.08541227 81.8840702 148.171875 84.828125 C145.22479686 94.30678602 142.21429586 103.75533119 139.04541016 113.16210938 C137.66191156 117.33134474 136.39887794 121.52805 135.1875 125.75 C134.97158203 126.49314453 134.75566406 127.23628906 134.53320312 128.00195312 C134.01950069 129.77137262 133.50931633 131.54181301 133 133.3125 C132.34 133.3125 131.68 133.3125 131 133.3125 C130.731875 133.93125 130.46375 134.55 130.1875 135.1875 C129 137.3125 129 137.3125 126 139.3125 C121.0122286 140.48440127 116.08805623 140.45737605 110.99609375 140.4453125 C110.10437973 140.44681305 109.21266571 140.4483136 108.29393005 140.44985962 C105.34174253 140.45223287 102.38967567 140.44590115 99.4375 140.4375 C98.42343079 140.43528442 97.40936157 140.43306885 96.36456299 140.43078613 C89.75555955 140.41404111 83.14677768 140.37931262 76.53790283 140.33532715 C72.91834652 140.31197316 69.29878163 140.29323764 65.67919922 140.27441406 C59.59122293 140.23924679 53.50388253 140.17945625 47.41629028 140.10296631 C45.06062334 140.07604811 42.7048717 140.05571442 40.34909058 140.04205322 C37.0420776 140.02090231 33.7363279 139.97459069 30.4296875 139.921875 C29.44528183 139.92063629 28.46087616 139.91939758 27.44664001 139.91812134 C23.09584647 139.823963 20.63344597 139.69698355 16.84814453 137.39941406 C15 135.3125 15 135.3125 15 133.3125 C14.34 133.3125 13.68 133.3125 13 133.3125 C9.88011316 124.14582219 6.85581691 114.97700216 4.16821289 105.67358398 C1.95486453 98.0664185 -0.39094139 90.50047849 -2.75 82.9375 C-2.9646994 82.24911041 -3.1793988 81.56072083 -3.40060425 80.85147095 C-6.78188869 70.03057164 -10.32056991 59.27044021 -13.94067383 48.52685547 C-16.85376882 39.84734313 -19.51781915 31.12474046 -22 22.3125 C-22.56074219 20.48332031 -22.56074219 20.48332031 -23.1328125 18.6171875 C-24.3105952 14.12888046 -24.09120868 11.82282922 -23 7.3125 C-17.25839782 -0.45555001 -8.8426554 -0.02971322 0 0 Z " fill="#A6C4E6" transform="translate(177,40.6875)"/>
<path d="M0 0 C-1.56421401 1.85472005 -2.47074952 2.89578718 -4.89224643 3.37259549 C-5.61105701 3.37145633 -6.3298676 3.37031717 -7.07046032 3.36914349 C-7.90199822 3.37511663 -8.73353611 3.38108978 -9.59027213 3.38724393 C-10.50368835 3.3785054 -11.41710457 3.36976688 -12.35820007 3.36076355 C-13.32856526 3.36332682 -14.29893044 3.3658901 -15.29870063 3.36853105 C-18.56477893 3.37349005 -21.83039952 3.35694094 -25.09643555 3.34057617 C-27.43182362 3.33973036 -29.76721249 3.34020415 -32.1026001 3.34190369 C-38.45559503 3.34276685 -44.80842113 3.32508914 -51.16137671 3.30418181 C-57.12407415 3.28736311 -63.08676485 3.28431479 -69.0494828 3.2812262 C-80.86090134 3.27465805 -92.67225777 3.25468705 -104.48364258 3.22631836 C-115.95824879 3.19878718 -127.43283814 3.177549 -138.9074707 3.16479492 C-139.61460048 3.16400675 -140.32173027 3.16321858 -141.05028822 3.16240653 C-144.5977011 3.15849145 -148.1451141 3.15470032 -151.69252717 3.15097082 C-181.1283915 3.11986359 -210.56419509 3.06679512 -240 3 C-240.33 2.34 -240.66 1.68 -241 1 C-211.74218405 0.87235445 -182.48436713 0.7449315 -153.22654886 0.61781773 C-149.76952215 0.60279811 -146.31249545 0.58777659 -142.85546875 0.57275391 C-142.16725984 0.56976329 -141.47905093 0.56677268 -140.76998721 0.56369144 C-129.63815052 0.51531349 -118.50631449 0.4667825 -107.37447871 0.41819459 C-95.9454857 0.36831308 -84.51649197 0.31860012 -73.08749759 0.26903296 C-66.67085082 0.24119886 -60.25420439 0.21328875 -53.83755875 0.18519592 C-47.79497672 0.1587432 -41.75239384 0.13249483 -35.70981026 0.10640144 C-33.49513148 0.0968022 -31.28045302 0.08712907 -29.06577492 0.07737541 C-26.03458361 0.06403697 -23.00339125 0.05096812 -19.97219849 0.03796387 C-19.10251784 0.03407292 -18.2328372 0.03018197 -17.3368026 0.02617311 C-11.55783742 0.00176002 -5.77901376 -0.00419892 0 0 Z " fill="#6C93C8" transform="translate(372,441)"/>
<path d="M0 0 C0.97608719 -0.00043808 1.95217438 -0.00087616 2.95783997 -0.00132751 C6.17742052 0.00075902 9.39647744 0.02408414 12.6159668 0.04760742 C14.85084244 0.05320385 17.08572177 0.05747372 19.32060242 0.06047058 C25.19790844 0.07191563 31.07499146 0.10138015 36.95220947 0.13458252 C42.95142602 0.16529056 48.95067866 0.17897751 54.94995117 0.1940918 C66.71762718 0.22624996 78.48513781 0.27744243 90.25268555 0.34057617 C89.92268555 1.00057617 89.59268555 1.66057617 89.25268555 2.34057617 C88.0463446 2.34866302 86.84000366 2.35674988 85.59710693 2.36508179 C74.23739409 2.4425124 62.87780147 2.53024396 51.5182457 2.62810326 C45.67795952 2.67808341 39.83769159 2.72441341 33.99731445 2.76245117 C28.36273213 2.79928209 22.72830178 2.84563626 17.09384918 2.89863968 C14.94246329 2.91719526 12.79104481 2.9322989 10.63961029 2.94392014 C7.62994266 2.9607625 4.62062398 2.98979302 1.61108398 3.02172852 C0.27212318 3.0249688 0.27212318 3.0249688 -1.09388733 3.02827454 C-1.91555893 3.03943802 -2.73723053 3.0506015 -3.58380127 3.06210327 C-4.29542545 3.06763403 -5.00704964 3.07316479 -5.74023819 3.07886314 C-8.07136895 3.38283131 -9.71201357 4.1910763 -11.74731445 5.34057617 C-12.73731445 4.68057617 -13.72731445 4.02057617 -14.74731445 3.34057617 C-10.0227844 -0.35429114 -5.72543683 -0.06733589 0 0 Z " fill="#678ABD" transform="translate(209.747314453125,202.659423828125)"/>
<path d="M0 0 C0.12375 0.61875 0.2475 1.2375 0.375 1.875 C0.87197356 4.19120832 0.87197356 4.19120832 3 6 C2.525625 6.4125 2.05125 6.825 1.5625 7.25 C-0.63112317 9.70685795 -0.83983969 12.13367832 -1.4296875 15.32421875 C-1.65011719 16.49404297 -1.65011719 16.49404297 -1.875 17.6875 C-2.01679688 18.47511719 -2.15859375 19.26273437 -2.3046875 20.07421875 C-2.53414062 20.70972656 -2.76359375 21.34523438 -3 22 C-3.99 22.33 -4.98 22.66 -6 23 C-6.33 24.98 -6.66 26.96 -7 29 C-7.66 29 -8.32 29 -9 29 C-9.33 29.66 -9.66 30.32 -10 31 C-8.59643358 23.85658565 -6.42618635 17.24817592 -3.875 10.4375 C-3.50246094 9.42880859 -3.12992188 8.42011719 -2.74609375 7.38085938 C-1.83587803 4.91860915 -0.92043712 2.45844342 0 0 Z " fill="#91B0D5" transform="translate(135,362)"/>
<path d="M0 0 C1.01425231 3.04275692 1.30163331 4.83285028 1 8 C-0.5 10.8125 -0.5 10.8125 -2 13 C-1.34 13.66 -0.68 14.32 0 15 C-0.99 15.33 -1.98 15.66 -3 16 C-2.67 16.99 -2.34 17.98 -2 19 C-2.928125 19.12375 -2.928125 19.12375 -3.875 19.25 C-6.18437567 19.81258459 -6.18437567 19.81258459 -7.25 22.0625 C-7.4975 22.701875 -7.745 23.34125 -8 24 C-7.39461212 20.64048698 -6.56675919 17.55115637 -5.37109375 14.35546875 C-4.90219727 13.09379883 -4.90219727 13.09379883 -4.42382812 11.80664062 C-4.09833984 10.94232422 -3.77285156 10.07800781 -3.4375 9.1875 C-3.10814453 8.30384766 -2.77878906 7.42019531 -2.43945312 6.50976562 C-1.62965399 4.33856505 -0.81641107 2.16872111 0 0 Z " fill="#8EAED8" transform="translate(174,253)"/>
<path d="M0 0 C2.84589909 0.57994162 3.9756302 0.97901489 6.25 2.9375 C9.03994281 7.81989992 8.67385942 12.77918041 7.5390625 18.203125 C7.08555693 19.81997095 6.55166606 21.41396006 6 23 C5.67 23 5.34 23 5 23 C5.14308594 21.87851563 5.14308594 21.87851563 5.2890625 20.734375 C5.39992188 19.74953125 5.51078125 18.7646875 5.625 17.75 C5.74101562 16.77546875 5.85703125 15.8009375 5.9765625 14.796875 C6.00190195 11.77303372 5.54294791 10.54377899 4 8 C2.66666667 5.33333333 1.33333333 2.66666667 0 0 Z " fill="#D2E1EE" transform="translate(338,43)"/>
<path d="M0 0 C2.29576678 2.29576678 3.0638375 3.90346249 4 7 C3.625 9.8125 3.625 9.8125 3 12 C1.68 12.33 0.36 12.66 -1 13 C-1.66 11.35 -2.32 9.7 -3 8 C-2.01 8 -1.02 8 0 8 C0 6.35 0 4.7 0 3 C-0.66 2.67 -1.32 2.34 -2 2 C-1.34 2 -0.68 2 0 2 C0 1.34 0 0.68 0 0 Z " fill="#5F8AC5" transform="translate(379,404)"/>
<path d="M0 0 C0.66 0 1.32 0 2 0 C2 0.66 2 1.32 2 2 C2.66 2 3.32 2 4 2 C6 5 6 5 5.625 7.6875 C5.41875 8.450625 5.2125 9.21375 5 10 C3.68 9.67 2.36 9.34 1 9 C1 8.34 1 7.68 1 7 C0.34 7 -0.32 7 -1 7 C-0.67 4.69 -0.34 2.38 0 0 Z " fill="#7097CB" transform="translate(306,208)"/>
<path d="M0 0 C0.99 1.32 1.98 2.64 3 4 C2.67 4.66 2.34 5.32 2 6 C2 7.32 2 8.64 2 10 C1.34 10 0.68 10 0 10 C0 10.99 0 11.98 0 13 C-0.99 13.33 -1.98 13.66 -3 14 C-2.69024532 12.22868439 -2.37709575 10.45796222 -2.0625 8.6875 C-1.88847656 7.70136719 -1.71445313 6.71523438 -1.53515625 5.69921875 C-1 3 -1 3 0 0 Z " fill="#5883C0" transform="translate(138,354)"/>
<path d="M0 0 C0.66 0.33 1.32 0.66 2 1 C2.625 3.5625 2.625 3.5625 3 6 C1.68 6.99 0.36 7.98 -1 9 C-1.66 8.67 -2.32 8.34 -3 8 C-3.33 8.33 -3.66 8.66 -4 9 C-4.33 8.01 -4.66 7.02 -5 6 C-4.34 5.01 -3.68 4.02 -3 3 C-2.34 3 -1.68 3 -1 3 C-0.67 2.01 -0.34 1.02 0 0 Z " fill="#7A9ECF" transform="translate(193,207)"/>
<path d="M0 0 C1.39035371 4.17106112 -0.09769194 7.18206859 -1.4375 11.1875 C-1.68048828 11.93708984 -1.92347656 12.68667969 -2.17382812 13.45898438 C-2.77465056 15.30857501 -3.38629678 17.15464327 -4 19 C-5.13732426 15.59598052 -4.83989957 13.22543336 -4.0625 9.75 C-3.86785156 8.85796875 -3.67320312 7.9659375 -3.47265625 7.046875 C-3.31667969 6.37140625 -3.16070312 5.6959375 -3 5 C-2.34 5 -1.68 5 -1 5 C-1 4.34 -1 3.68 -1 3 C-1.66 2.67 -2.32 2.34 -3 2 C-2.01 2 -1.02 2 0 2 C0 1.34 0 0.68 0 0 Z " fill="#D5E3F1" transform="translate(328,110)"/>
<path d="M0 0 C0.66 0.33 1.32 0.66 2 1 C1.67 2.32 1.34 3.64 1 5 C0.34 5 -0.32 5 -1 5 C-0.91621094 5.60328125 -0.83242187 6.2065625 -0.74609375 6.828125 C-0.64425781 7.62734375 -0.54242188 8.4265625 -0.4375 9.25 C-0.33308594 10.03890625 -0.22867188 10.8278125 -0.12109375 11.640625 C0.00027349 14.00532874 -0.30366743 15.7511037 -1 18 C-2.96110484 12.46276281 -3.15656685 8.78283423 -2 3 C-1.34 2.01 -0.68 1.02 0 0 Z " fill="#E1EBF4" transform="translate(156,45)"/>
<path d="M0 0 C0.99 0.33 1.98 0.66 3 1 C3.33 1.99 3.66 2.98 4 4 C3.01 4.495 3.01 4.495 2 5 C3.32 6.32 4.64 7.64 6 9 C3.61435923 8.42415568 1.33317216 7.77772405 -1 7 C-1.625 4.625 -1.625 4.625 -2 2 C-1.34 1.34 -0.68 0.68 0 0 Z " fill="#6790CD" transform="translate(124,434)"/>
<path d="M0 0 C0.66 0.99 1.32 1.98 2 3 C1.34 3 0.68 3 0 3 C0.20625 3.78375 0.4125 4.5675 0.625 5.375 C0.810625 6.674375 0.810625 6.674375 1 8 C0.34 8.66 -0.32 9.32 -1 10 C-1.46162427 12.43252661 -1.46162427 12.43252661 -1.625 15.125 C-1.73714844 16.49011719 -1.73714844 16.49011719 -1.8515625 17.8828125 C-1.90054688 18.58148438 -1.94953125 19.28015625 -2 20 C-2.33 20 -2.66 20 -3 20 C-3.33452052 12.56621057 -3.13902852 6.80122845 0 0 Z " fill="#9AB7D9" transform="translate(118,410)"/>
<path d="M0 0 C2.34882224 2.34882224 3.03503024 4.27123667 4.1875 7.375 C4.55230469 8.33148438 4.91710937 9.28796875 5.29296875 10.2734375 C6.01370542 13.05285296 5.98549829 14.35108103 5 17 C4.34 14.69 3.68 12.38 3 10 C2.34 10 1.68 10 1 10 C0.855625 9.05125 0.71125 8.1025 0.5625 7.125 C0.17064601 4.1065506 0.17064601 4.1065506 -1 2 C-0.67 1.34 -0.34 0.68 0 0 Z " fill="#9FBBDB" transform="translate(340,294)"/>
<path d="M0 0 C7.48291572 6.15034169 7.48291572 6.15034169 10 10 C9.01 10 8.02 10 7 10 C7 9.34 7 8.68 7 8 C6.401875 7.938125 5.80375 7.87625 5.1875 7.8125 C2.09660471 6.66445318 1.4119656 4.89452948 0 2 C0 1.34 0 0.68 0 0 Z " fill="#CDDBEA" transform="translate(206,69)"/>
<path d="M0 0 C0.33 0.66 0.66 1.32 1 2 C0.34 2 -0.32 2 -1 2 C-1.66 3.32 -2.32 4.64 -3 6 C-3.66 6 -4.32 6 -5 6 C-5 6.66 -5 7.32 -5 8 C-5.66 7.67 -6.32 7.34 -7 7 C-7 5.68 -7 4.36 -7 3 C-4.66785852 1.79371992 -2.50357861 0.8345262 0 0 Z " fill="#81A2CD" transform="translate(382,433)"/>
<path d="M0 0 C0.66 0.66 1.32 1.32 2 2 C2.66 1.67 3.32 1.34 4 1 C4 4 4 4 2.125 6.1875 C0 8 0 8 -2 8 C-2.33 8.66 -2.66 9.32 -3 10 C-2.69201674 8.51988629 -2.378482 7.04092675 -2.0625 5.5625 C-1.88847656 4.73878906 -1.71445313 3.91507813 -1.53515625 3.06640625 C-1 1 -1 1 0 0 Z " fill="#83A7D4" transform="translate(183,228)"/>
<path d="M0 0 C0.99 0 1.98 0 3 0 C3.66 3.63 4.32 7.26 5 11 C4.67 10.34 4.34 9.68 4 9 C3.34 9 2.68 9 2 9 C1.34 6.03 0.68 3.06 0 0 Z " fill="#C1D2E7" transform="translate(164,89)"/>
<path d="M0 0 C1.03071195 3.09213585 1.45864339 4.78949624 1 8 C-1.5 10.8125 -1.5 10.8125 -4 13 C-3.27991594 8.39146203 -1.68704061 4.32762591 0 0 Z " fill="#A7BFDC" transform="translate(174,253)"/>
<path d="M0 0 C0.33 0 0.66 0 1 0 C1.33 1.98 1.66 3.96 2 6 C1.34 6 0.68 6 0 6 C-0.268125 6.639375 -0.53625 7.27875 -0.8125 7.9375 C-2 10 -2 10 -5 11 C-3.55049545 7.2089881 -1.84827434 3.6125362 0 0 Z " fill="#D1DFF0" transform="translate(299,58)"/>
<path d="M0 0 C1.13643966 3.40931897 0.86747764 4.00335456 -0.4375 7.1875 C-0.86869141 8.26064453 -0.86869141 8.26064453 -1.30859375 9.35546875 C-1.53675781 9.89816406 -1.76492188 10.44085938 -2 11 C-2.33 11 -2.66 11 -3 11 C-3.08096803 9.54257537 -3.13917774 8.08387193 -3.1875 6.625 C-3.22230469 5.81289062 -3.25710938 5.00078125 -3.29296875 4.1640625 C-3.19628906 3.44992188 -3.09960938 2.73578125 -3 2 C-2.01 1.34 -1.02 0.68 0 0 Z " fill="#C5D5E8" transform="translate(341,69)"/>
<path d="M0 0 C0.66 0.99 1.32 1.98 2 3 C1.125 5.6875 1.125 5.6875 0 8 C-0.66 8 -1.32 8 -2 8 C-2.33 8.66 -2.66 9.32 -3 10 C-2.69201674 8.51988629 -2.378482 7.04092675 -2.0625 5.5625 C-1.88847656 4.73878906 -1.71445313 3.91507813 -1.53515625 3.06640625 C-1 1 -1 1 0 0 Z " fill="#87A9D1" transform="translate(187,217)"/>
<path d="M0 0 C2.0625 0.4375 2.0625 0.4375 4 1 C0.31912647 3.45391569 -2.44355588 3.22802759 -6.6875 3.125 C-7.7403418 3.11146484 -7.7403418 3.11146484 -8.81445312 3.09765625 C-10.54311525 3.07413704 -12.27160145 3.03826713 -14 3 C-14 2.67 -14 2.34 -14 2 C-13.07316406 1.93941406 -12.14632813 1.87882813 -11.19140625 1.81640625 C-9.39509766 1.69072266 -9.39509766 1.69072266 -7.5625 1.5625 C-5.77005859 1.44068359 -5.77005859 1.44068359 -3.94140625 1.31640625 C-1.11429756 1.32343886 -1.11429756 1.32343886 0 0 Z " fill="#A8BED9" transform="translate(301,176)"/>
<path d="M0 0 C0.66 0.33 1.32 0.66 2 1 C2.625 4.0625 2.625 4.0625 3 7 C2.01 7.33 1.02 7.66 0 8 C-1.125 2.25 -1.125 2.25 0 0 Z " fill="#4374B4" transform="translate(146,335)"/>
<path d="M0 0 C1.64826111 2.96687001 2.44271087 5.65626525 3 9 C2.01 9.495 2.01 9.495 1 10 C0.63720544 8.71073008 0.28503302 7.41846728 -0.0625 6.125 C-0.35833984 5.04605469 -0.35833984 5.04605469 -0.66015625 3.9453125 C-1 2 -1 2 0 0 Z " fill="#7194C2" transform="translate(360,350)"/>
<path d="M0 0 C3.00617269 3.00617269 2.59585316 5.82381598 3 10 C2.01 10.495 2.01 10.495 1 11 C0.4254048 7.26513121 0 3.78706732 0 0 Z " fill="#A9BED8" transform="translate(155,50)"/>
<path d="M0 0 C0.99 0.33 1.98 0.66 3 1 C3.33 2.65 3.66 4.3 4 6 C3.01 6.495 3.01 6.495 2 7 C1.67 6.01 1.34 5.02 1 4 C0.01 4.495 0.01 4.495 -1 5 C-0.67 3.35 -0.34 1.7 0 0 Z " fill="#6893C9" transform="translate(146,332)"/>
<path d="M0 0 C0.98120464 3.05263664 0.98120464 4.94736336 0 8 C-0.66 8 -1.32 8 -2 8 C-2.33 8.66 -2.66 9.32 -3 10 C-2.69201674 8.51988629 -2.378482 7.04092675 -2.0625 5.5625 C-1.88847656 4.73878906 -1.71445313 3.91507812 -1.53515625 3.06640625 C-1 1 -1 1 0 0 Z " fill="#A0BBDA" transform="translate(150,321)"/>
<path d="M0 0 C0.66 0.33 1.32 0.66 2 1 C-0.25 3.5625 -0.25 3.5625 -3 6 C-4.32 5.67 -5.64 5.34 -7 5 C-4.69 3.35 -2.38 1.7 0 0 Z " fill="#DBE6F3" transform="translate(281,80)"/>
<path d="M0 0 C1.24675325 4.98701299 1.24675325 4.98701299 0 8 C-0.99 8.33 -1.98 8.66 -3 9 C-2.01 6.03 -1.02 3.06 0 0 Z " fill="#92B1D8" transform="translate(144,338)"/>
<path d="M0 0 C0.66 0 1.32 0 2 0 C2.66 1.65 3.32 3.3 4 5 C2.68 5.33 1.36 5.66 0 6 C-1.125 2.25 -1.125 2.25 0 0 Z " fill="#3F73B3" transform="translate(185,225)"/>
<path d="M0 0 C3.04095366 3.04095366 3.68440793 3.89730308 4 8 C3.34 8.66 2.68 9.32 2 10 C1.34 6.7 0.68 3.4 0 0 Z " fill="#CBDBED" transform="translate(176,126)"/>
</svg>
